<svg width="370" height="370" viewBox="0 0 370 370" fill="none" xmlns="http://www.w3.org/2000/svg">
<rect width="369.457" height="369.457" fill="white"/>
<path d="M17.5498 242.93L30.3515 250.33L43.1531 257.73L55.9548 265.129L68.7565 272.529L81.5581 279.929L94.3598 287.329L107.161 294.729L119.963 302.128L132.765 309.528L145.566 316.928L158.368 324.328L171.17 331.728L183.971 339.127M30.3885 235.493L43.1901 242.893L55.9918 250.293L68.7935 257.693L81.5951 265.092L94.3968 272.492L107.198 279.892L120 287.292L132.802 294.692L145.603 302.091L158.405 309.491L171.207 316.891L184.008 324.291L196.81 331.691M43.2641 228.056L56.0658 235.456L68.8675 242.856L81.6691 250.256L94.4708 257.656L107.272 265.055L120.074 272.455L132.876 279.855L145.677 287.255L158.479 294.655L171.281 302.054L184.082 309.454L196.884 316.854L209.686 324.254M56.1768 220.62L68.9785 228.019L81.7801 235.419L94.5818 242.819L107.383 250.219L120.185 257.619L132.987 265.018L145.788 272.418L158.59 279.818L171.392 287.218L184.193 294.618L196.995 302.017L209.797 309.417L222.598 316.817M69.0155 213.183L81.8171 220.583L94.6188 227.982L107.42 235.382L120.222 242.782L133.024 250.182L145.825 257.582L158.627 264.981L171.429 272.381L184.23 279.781L197.032 287.181L209.834 294.581L222.635 301.98L235.437 309.38M81.8911 205.746L94.6928 213.146L107.494 220.546L120.296 227.945L133.098 235.345L145.899 242.745L158.701 250.145L171.503 257.545L184.304 264.944L197.106 272.344L209.908 279.744L222.709 287.144L235.511 294.544L248.313 301.943M94.7668 198.309L107.568 205.709L120.37 213.109L133.172 220.509L145.973 227.908L158.775 235.308L171.577 242.708L184.378 250.108L197.18 257.508L209.982 264.907L222.783 272.307L235.585 279.707L248.387 287.107L261.188 294.507M107.642 190.909L120.444 198.309L133.246 205.709L146.047 213.109L158.849 220.509L171.651 227.908L184.452 235.308L197.254 242.708L210.056 250.108L222.857 257.508L235.659 264.907L248.461 272.307L261.262 279.707L274.064 287.107M120.518 183.472L133.32 190.872L146.121 198.272L158.923 205.672L171.725 213.072L184.526 220.472L197.328 227.871L210.13 235.271L222.931 242.671L235.733 250.071L248.535 257.471L261.336 264.87L274.138 272.27L286.94 279.67M133.394 176.036L146.195 183.435L158.997 190.835L171.799 198.235L184.6 205.635L197.402 213.035L210.204 220.435L223.005 227.834L235.807 235.234L248.609 242.634L261.41 250.034L274.212 257.434L287.014 264.833L299.815 272.233M146.269 168.599L159.071 175.999L171.873 183.398L184.674 190.798L197.476 198.198L210.278 205.598L223.079 212.998L235.881 220.398L248.683 227.797L261.484 235.197L274.286 242.597L287.088 249.997L299.889 257.397L312.691 264.796M159.145 161.162L171.947 168.562L184.748 175.962L197.55 183.362L210.352 190.761L223.153 198.161L235.955 205.561L248.757 212.961L261.558 220.361L274.36 227.76L287.162 235.16L299.963 242.56L312.765 249.96L325.567 257.36M172.021 153.725L184.822 161.125L197.624 168.525L210.426 175.925L223.227 183.325L236.029 190.724L248.831 198.124L261.632 205.524L274.434 212.924L287.236 220.324L300.037 227.723L312.839 235.123L325.641 242.523L338.442 249.923M184.896 146.288L197.698 153.688L210.5 161.088L223.301 168.488L236.103 175.888L248.905 183.288L261.706 190.687L274.508 198.087L287.31 205.487L300.111 212.887L312.913 220.287L325.715 227.686L338.516 235.086L351.318 242.486M183.86 338.979L196.736 331.543L209.612 324.106L222.487 316.669L235.363 309.232L248.239 301.795L261.114 294.359L273.99 286.922L286.866 279.485L299.741 272.048L312.617 264.611L325.493 257.175L338.368 249.738L351.244 242.301M171.059 331.58L183.934 324.143L196.81 316.706L209.686 309.269L222.561 301.832L235.437 294.396L248.313 286.959L261.188 279.522L274.064 272.085L286.94 264.648L299.815 257.212L312.691 249.775L325.567 242.338L338.442 234.901M158.294 324.18L171.17 316.743L184.045 309.306L196.921 301.869L209.797 294.433L222.672 286.996L235.548 279.559L248.424 272.122L261.299 264.685L274.175 257.249L287.051 249.812L299.926 242.375L312.802 234.938L325.678 227.501M145.492 316.817L158.368 309.38L171.244 301.943L184.119 294.507L196.995 287.07L209.871 279.633L222.746 272.196L235.622 264.759L248.498 257.323L261.373 249.886L274.249 242.449L287.125 235.012L300 227.575L312.876 220.139M132.691 309.417L145.566 301.98L158.442 294.544L171.318 287.107L184.193 279.67L197.069 272.233L209.945 264.796L222.82 257.36L235.696 249.923L248.572 242.486L261.447 235.049L274.323 227.612L287.199 220.176L300.074 212.739M119.889 302.017L132.765 294.581L145.64 287.144L158.516 279.707L171.392 272.27L184.267 264.833L197.143 257.397L210.019 249.96L222.894 242.523L235.77 235.086L248.646 227.649L261.521 220.213L274.397 212.776L287.273 205.339M107.087 294.655L119.963 287.218L132.839 279.781L145.714 272.344L158.59 264.907L171.466 257.471L184.341 250.034L197.217 242.597L210.093 235.16L222.968 227.723L235.844 220.287L248.72 212.85L261.595 205.413L274.471 197.976M94.2858 287.255L107.161 279.818L120.037 272.381L132.913 264.944L145.788 257.508L158.664 250.071L171.54 242.634L184.415 235.197L197.291 227.76L210.167 220.324L223.042 212.887L235.918 205.45L248.794 198.013L261.669 190.576M81.5211 279.855L94.3968 272.418L107.272 264.981L120.148 257.545L133.024 250.108L145.899 242.671L158.775 235.234L171.651 227.797L184.526 220.361L197.402 212.924L210.278 205.487L223.153 198.087L236.029 190.65L248.905 183.213M68.7195 272.492L81.5951 265.055L94.4708 257.619L107.346 250.182L120.222 242.745L133.098 235.308L145.973 227.871L158.849 220.435L171.725 212.998L184.6 205.561L197.476 198.124L210.352 190.687L223.227 183.25L236.103 175.814M55.9178 265.092L68.7935 257.656L81.6691 250.219L94.5448 242.782L107.42 235.345L120.296 227.908L133.172 220.472L146.047 213.035L158.923 205.598L171.799 198.161L184.674 190.724L197.55 183.288L210.426 175.851L223.301 168.414M43.1161 257.693L55.9918 250.256L68.8675 242.856L81.7431 235.419L94.6188 227.982L107.494 220.546L120.37 213.109L133.246 205.672L146.121 198.235L158.997 190.798L171.873 183.362L184.748 175.925L197.624 168.488L210.5 161.051M30.3145 250.33L43.1901 242.893L56.0658 235.456L68.9415 228.019L81.8171 220.583L94.6928 213.146L107.568 205.709L120.444 198.272L133.32 190.835L146.195 183.398L159.071 175.962L171.947 168.525L184.822 161.088L197.698 153.651M17.5498 242.93L30.3885 235.493L43.2641 228.056L56.1398 220.62L69.0155 213.183L81.8911 205.746L94.7668 198.309L107.642 190.872L120.518 183.435L133.394 175.999L146.269 168.562L159.145 161.125L172.021 153.688L184.896 146.251" stroke="url(#paint0_linear_320_375)" stroke-width="0.516599" stroke-miterlimit="10"/>
<path opacity="0.2" d="M291.713 222.581V222.655C291.713 224.764 291.269 226.762 290.455 228.612C288.753 232.496 285.312 235.937 280.095 238.934L273.953 242.486L239.729 262.244C237.065 263.798 233.698 264.575 229.703 264.575C225.707 264.575 222.377 263.835 219.713 262.281L187.672 243.781L176.794 237.491L176.72 253.475L162.438 253.512H162.364L162.512 223.432L211.092 223.358H214.607V225.393L214.57 229.869V231.645L186.858 231.682L193.406 235.456L207.725 243.707L229.814 256.435L270.179 233.125C272.547 231.756 274.36 230.239 275.618 228.612C277.024 226.762 277.727 224.764 277.764 222.618C277.764 220.102 276.839 217.808 274.952 215.736C273.768 214.441 272.214 213.257 270.29 212.147C265.296 209.261 259.228 207.818 252.124 207.855C244.983 207.855 238.915 209.335 233.92 212.221L223.376 218.326L209.316 210.297C199.437 204.599 187.561 201.639 173.723 201.454C159.885 201.269 147.972 204.007 138.019 209.779C135.688 211.111 133.653 212.517 131.914 213.96C126.105 218.77 123.33 224.246 123.552 230.424C123.626 232.311 123.959 234.161 124.551 235.9C126.512 241.635 131.248 246.667 138.796 251.033L135.614 252.883C133.505 254.104 131.692 255.399 130.249 256.768C126.919 259.876 125.254 263.354 125.291 267.202C125.291 269.31 125.809 271.308 126.845 273.195C128.51 276.303 131.581 279.152 135.984 281.705C142.866 285.664 151.228 287.662 161.069 287.699C170.911 287.699 179.31 285.738 186.229 281.742L209.242 268.459L209.649 268.2L219.639 273.972L219.232 274.231L196.218 287.514C186.599 293.064 174.907 295.839 161.106 295.876C149.378 295.913 139.166 293.915 130.508 289.919C128.991 289.216 127.511 288.439 126.068 287.625C118.89 283.481 114.34 278.671 112.379 273.158C111.972 272.011 111.676 270.827 111.491 269.606C111.343 268.718 111.269 267.831 111.269 266.98C111.269 263.243 112.527 259.654 115.079 256.25C116.596 254.252 118.52 252.291 120.925 250.404C115.634 245.742 112.268 240.858 110.825 235.752C110.27 233.791 109.974 231.83 109.974 229.795C109.974 228.575 110.085 227.317 110.27 226.059C111.713 217.364 117.854 209.853 128.658 203.6C141.275 196.311 156.37 192.833 173.945 193.092C191.52 193.388 206.652 197.162 219.306 204.488L223.302 206.782C231.108 202.009 240.506 199.567 251.458 199.456C262.41 199.345 271.992 201.639 280.206 206.375C287.902 210.815 291.713 216.18 291.713 222.581Z" fill="#A8A8A8"/>
<path d="M214.57 181.141V193.24L214.533 195.016H207.688L193.369 186.765L186.82 182.991L214.533 182.917L214.57 181.141Z" stroke="#459ED7" stroke-width="0.516599" stroke-miterlimit="10"/>
<path d="M214.569 181.142V179.699" stroke="black" stroke-width="0.516599" stroke-miterlimit="10"/>
<path d="M120.962 201.639C118.558 203.526 116.634 205.45 115.117 207.485C111.713 202.897 110.011 198.124 110.011 193.167V181.068C110.011 183.103 110.307 185.064 110.862 187.025C112.305 192.094 115.672 196.977 120.962 201.639Z" fill="white" stroke="#459ED7" stroke-width="0.516599" stroke-miterlimit="10"/>
<path d="M277.69 173.964C277.69 176.147 276.95 178.145 275.544 179.958C274.323 178.367 272.547 176.887 270.217 175.555C265.222 172.669 259.154 171.226 252.05 171.263C244.909 171.263 238.841 172.743 233.846 175.629L223.302 181.734V169.635L233.846 163.531C238.878 160.645 244.946 159.165 252.05 159.165C259.191 159.165 265.222 160.608 270.217 163.457C272.14 164.567 273.694 165.788 274.878 167.045C276.765 169.154 277.727 171.448 277.69 173.964Z" fill="white" stroke="#459ED7" stroke-width="0.516599" stroke-miterlimit="10"/>
<path d="M291.713 173.927V186.025C291.676 192.463 287.791 197.902 280.095 202.342L239.729 225.651C237.065 227.205 233.698 227.982 229.702 227.982C225.707 227.982 222.377 227.242 219.713 225.688L219.639 225.651V225.17L209.649 219.399L209.242 219.658L176.757 200.899L176.683 216.883L162.327 216.92L162.401 204.821L176.683 204.784L176.757 188.8L187.634 195.09L219.676 213.59C222.34 215.144 225.669 215.884 229.665 215.884C233.661 215.884 237.028 215.107 239.692 213.553L273.916 193.795L280.058 190.243C285.238 187.246 288.716 183.805 290.418 179.921C291.306 178.034 291.713 176.036 291.713 173.927Z" fill="white" stroke="#459ED7" stroke-width="0.516599" stroke-miterlimit="10"/>
<path d="M291.713 173.853V173.927C291.713 176.036 291.269 178.034 290.455 179.884C288.753 183.769 285.312 187.21 280.095 190.207L273.954 193.759L239.729 213.516C237.066 215.07 233.699 215.847 229.703 215.847C225.707 215.847 222.377 215.107 219.713 213.553L187.672 195.054L176.794 188.764L176.72 204.747L162.438 204.784H162.364L162.512 174.704L211.092 174.63H214.607V176.665L214.57 181.142V182.918L186.858 182.955L193.407 186.729L207.725 194.98L229.814 207.707L270.18 184.398C272.548 183.029 274.361 181.512 275.619 179.884C277.024 178.034 277.727 176.036 277.764 173.89C277.764 171.374 276.84 169.08 274.953 167.008C273.769 165.713 272.215 164.529 270.291 163.419C265.296 160.533 259.228 159.091 252.124 159.128C244.983 159.128 238.915 160.607 233.921 163.493L223.376 169.598L209.39 161.532C199.512 155.835 187.635 152.875 173.797 152.69C159.96 152.505 148.046 155.243 138.093 161.014C135.762 162.346 133.727 163.752 131.988 165.195C126.179 170.005 123.405 175.481 123.626 181.66C123.7 183.547 124.033 185.397 124.625 187.136C126.586 192.871 131.322 197.903 138.87 202.268L135.688 204.118C133.579 205.339 131.766 206.634 130.323 208.003C126.993 211.111 125.328 214.589 125.365 218.437C125.365 220.546 125.883 222.544 126.919 224.431C128.584 227.539 131.655 230.388 136.058 232.941C142.94 236.9 151.302 238.897 161.144 238.934C170.985 238.934 179.384 236.974 186.303 232.978L209.316 219.695L209.723 219.436L219.713 225.208L219.306 225.467L196.293 238.749C186.673 244.299 174.981 247.074 161.181 247.111C149.452 247.148 139.24 245.15 130.582 241.154C129.065 240.451 127.585 239.674 126.142 238.86C118.965 234.717 114.414 229.907 112.453 224.394C112.046 223.247 111.75 222.063 111.565 220.842C111.417 219.954 111.343 219.066 111.343 218.215C111.343 214.478 112.601 210.889 115.154 207.485C116.671 205.487 118.595 203.526 121 201.639C115.709 196.978 112.342 192.094 110.899 186.988C110.344 185.027 110.048 183.066 110.048 181.031C110.048 179.81 110.159 178.552 110.344 177.294C111.787 168.599 117.929 161.088 128.732 154.836C141.349 147.547 156.445 144.069 174.019 144.328C191.594 144.624 206.726 148.398 219.38 155.724L223.376 158.018C231.183 153.245 240.58 150.803 251.532 150.692C262.484 150.581 272.067 152.875 280.28 157.611C287.902 162.087 291.713 167.452 291.713 173.853Z" fill="#3FA8F4" stroke="#459ED7" stroke-width="0.516599" stroke-miterlimit="10" stroke-linejoin="round"/>
<path d="M219.676 225.171V237.269L196.218 250.811C186.599 256.361 174.907 259.136 161.106 259.173C147.306 259.21 135.651 256.472 126.105 250.959C117.448 245.964 112.601 239.97 111.528 232.94C111.38 232.052 111.306 231.164 111.306 230.276V218.178C111.306 219.066 111.38 219.917 111.528 220.805C111.713 222.026 112.009 223.21 112.416 224.357C114.377 229.869 118.964 234.679 126.105 238.823C127.548 239.637 129.028 240.414 130.545 241.117C139.203 245.113 149.415 247.074 161.143 247.074C174.944 247.037 186.636 244.262 196.255 238.712L219.269 225.43L219.676 225.171Z" fill="white" stroke="#459ED7" stroke-width="0.516599" stroke-miterlimit="10"/>
<path d="M138.797 202.268V214.367L135.615 216.217C131.36 218.659 128.437 221.397 126.809 224.431C125.773 222.544 125.292 220.546 125.255 218.437C125.255 214.589 126.883 211.111 130.213 208.003C131.693 206.634 133.469 205.339 135.578 204.118L138.797 202.268Z" fill="white" stroke="#459ED7" stroke-width="0.516599" stroke-miterlimit="10"/>
<path d="M223.302 169.635V181.734L214.57 176.702V174.667H211.055L209.279 173.668C199.4 167.97 187.524 165.01 173.686 164.825C159.848 164.64 147.935 167.378 137.982 173.113C130.878 177.22 126.401 181.882 124.514 187.173C123.922 185.397 123.589 183.584 123.515 181.697C123.293 175.518 126.068 170.042 131.877 165.232C133.653 163.789 135.688 162.383 137.982 161.051C147.935 155.316 159.811 152.541 173.686 152.726C187.524 152.911 199.4 155.871 209.279 161.569L223.302 169.635Z" fill="white" stroke="#459ED7" stroke-width="0.516599" stroke-miterlimit="10"/>
<path d="M291.713 232.385V100.188C291.713 96.8209 293.045 93.602 295.413 91.2341L306.846 79.8014C309.213 77.4334 310.545 74.2145 310.545 70.8476V46.0212" stroke="#009CF2" stroke-width="0.516599" stroke-miterlimit="10"/>
<path d="M310.581 46.0215C312.85 46.0215 314.688 44.1828 314.688 41.9146C314.688 39.6465 312.85 37.8077 310.581 37.8077C308.313 37.8077 306.475 39.6465 306.475 41.9146C306.475 44.1828 308.313 46.0215 310.581 46.0215Z" stroke="#009CF2" stroke-width="0.516599" stroke-miterlimit="10"/>
<path d="M122.072 285.515V167.969C122.072 164.047 120.518 160.274 117.743 157.499L108.974 148.73C106.199 145.955 104.646 142.181 104.646 138.259V94.1562" stroke="#009CF2" stroke-width="0.516599" stroke-miterlimit="10"/>
<path d="M104.646 94.1567C106.914 94.1567 108.753 92.3179 108.753 90.0498C108.753 87.7816 106.914 85.9429 104.646 85.9429C102.378 85.9429 100.539 87.7816 100.539 90.0498C100.539 92.3179 102.378 94.1567 104.646 94.1567Z" stroke="#009CF2" stroke-width="0.516599" stroke-miterlimit="10"/>
<path d="M149.451 158.276V92.2696C149.451 88.3477 151.005 84.5738 153.78 81.7989L164.547 71.0322C167.322 68.2572 168.876 64.4833 168.876 60.5614V37.77" stroke="#009CF2" stroke-width="0.516599" stroke-miterlimit="10"/>
<path d="M168.875 37.7703C171.144 37.7703 172.982 35.9316 172.982 33.6634C172.982 31.3952 171.144 29.5565 168.875 29.5565C166.607 29.5565 164.769 31.3952 164.769 33.6634C164.769 35.9316 166.607 37.7703 168.875 37.7703Z" stroke="#009CF2" stroke-width="0.516599" stroke-miterlimit="10"/>
<path d="M291.713 110.622V110.696C291.713 112.805 291.269 114.802 290.455 116.652C288.753 120.537 285.312 123.978 280.095 126.975L273.954 130.527L239.729 150.285C237.066 151.839 233.699 152.615 229.703 152.615C225.707 152.615 222.377 151.876 219.713 150.322L187.672 131.822L176.794 125.532L176.72 141.516L162.438 141.553H162.364L162.512 111.473L211.092 111.399H214.607V113.434L214.57 117.91V119.686L186.858 119.723L193.407 123.497L207.725 131.748L229.814 144.476L270.18 121.166C272.548 119.797 274.361 118.28 275.619 116.652C277.024 114.802 277.727 112.805 277.764 110.659C277.764 108.143 276.84 105.849 274.953 103.777C273.769 102.482 272.215 101.298 270.291 100.188C265.296 97.3019 259.228 95.859 252.124 95.896C244.983 95.896 238.915 97.3759 233.921 100.262L223.376 106.367L209.39 98.3009C199.512 92.603 187.635 89.6431 173.797 89.4581C159.96 89.2731 148.046 92.0111 138.093 97.7829C135.762 99.1149 133.727 100.521 131.988 101.964C126.179 106.774 123.405 112.25 123.626 118.428C123.7 120.315 124.033 122.165 124.625 123.904C126.586 129.639 131.322 134.671 138.87 139.037L135.688 140.887C133.579 142.108 131.766 143.403 130.323 144.772C126.993 147.88 125.328 151.358 125.365 155.205C125.365 157.314 125.883 159.312 126.919 161.199C128.584 164.307 131.655 167.156 136.058 169.709C142.94 173.668 151.302 175.666 161.144 175.703C170.985 175.74 179.384 173.742 186.303 169.746L209.316 156.463L209.723 156.204L219.713 161.976L219.306 162.235L196.293 175.518C186.673 181.068 174.981 183.843 161.181 183.88C149.452 183.917 139.24 181.919 130.582 177.923C129.065 177.22 127.585 176.443 126.142 175.629C118.965 171.485 114.414 166.675 112.453 161.162C112.046 160.015 111.75 158.831 111.565 157.61C111.417 156.722 111.343 155.834 111.343 154.983C111.343 151.247 112.601 147.658 115.154 144.254C116.671 142.256 118.595 140.295 121 138.408C115.709 133.746 112.342 128.862 110.899 123.756C110.344 121.795 110.048 119.834 110.048 117.799C110.048 116.578 110.159 115.32 110.344 114.062C111.787 105.368 117.929 97.8569 128.732 91.6041C141.349 84.3153 156.445 80.8374 174.019 81.0963C191.594 81.3923 206.726 85.1662 219.38 92.4921L223.376 94.786C231.183 90.0131 240.58 87.5712 251.532 87.4602C262.484 87.3492 272.067 89.6431 280.28 94.379C287.902 98.8559 291.713 104.221 291.713 110.622Z" stroke="#459ED7" stroke-width="0.516599" stroke-miterlimit="10"/>
<defs>
<linearGradient id="paint0_linear_320_375" x1="17.4388" y1="242.616" x2="351.344" y2="242.616" gradientUnits="userSpaceOnUse">
<stop stop-color="white"/>
<stop offset="1" stop-color="#3FA8F4"/>
</linearGradient>
</defs>
</svg>
