<svg width="371" height="370" viewBox="0 0 371 370" fill="none" xmlns="http://www.w3.org/2000/svg">
<rect width="369.457" height="369.457" transform="translate(0.827148)" fill="white"/>
<path d="M197.743 56.1663C199.99 56.1663 201.811 54.3447 201.811 52.0976C201.811 49.8505 199.99 48.0289 197.743 48.0289C195.495 48.0289 193.674 49.8505 193.674 52.0976C193.674 54.3447 195.495 56.1663 197.743 56.1663Z" stroke="#009CF2" stroke-width="0.511794" stroke-miterlimit="10"/>
<path d="M197.597 139.519V56.1658" stroke="#009CF2" stroke-width="0.511794" stroke-miterlimit="10"/>
<path d="M20.2236 225.879L32.9062 233.21L45.5888 240.541L58.2714 247.872L70.954 255.203L83.6366 262.534L96.3192 269.865L109.002 277.196L121.684 284.527L134.367 291.858L147.05 299.189L159.732 306.52L172.415 313.851L185.097 321.182M32.9429 218.511L45.6255 225.842L58.3081 233.173L70.9906 240.504L83.6732 247.835L96.3558 255.166L109.038 262.497L121.721 269.828L134.404 277.159L147.086 284.49L159.769 291.821L172.451 299.152L185.134 306.483L197.817 313.814M45.6988 211.144L58.3814 218.475L71.064 225.806L83.7465 233.137L96.4291 240.468L109.112 247.799L121.794 255.13L134.477 262.461L147.16 269.791L159.842 277.122L172.525 284.453L185.207 291.784L197.89 299.115L210.572 306.446M58.4913 203.776L71.1739 211.107L83.8565 218.438L96.5391 225.769L109.222 233.1L121.904 240.431L134.587 247.762L147.269 255.093L159.952 262.424L172.635 269.755L185.317 277.086L198 284.417L210.682 291.748L223.365 299.079M71.2106 196.408L83.8932 203.739L96.5758 211.07L109.258 218.401L121.941 225.732L134.624 233.063L147.306 240.394L159.989 247.725L172.671 255.056L185.354 262.387L198.036 269.718L210.719 277.049L223.402 284.38L236.084 291.711M83.9665 189.041L96.6491 196.372L109.332 203.703L122.014 211.034L134.697 218.365L147.379 225.696L160.062 233.027L172.745 240.358L185.427 247.689L198.11 255.02L210.792 262.351L223.475 269.682L236.158 277.013L248.84 284.343M96.7224 181.673L109.405 189.004L122.088 196.335L134.77 203.666L147.453 210.997L160.135 218.328L172.818 225.659L185.501 232.99L198.183 240.321L210.866 247.652L223.548 254.983L236.231 262.314L248.913 269.645L261.596 276.976M109.478 174.306L122.161 181.637L134.843 188.967L147.526 196.298L160.209 203.629L172.891 210.96L185.574 218.291L198.256 225.622L210.939 232.953L223.622 240.284L236.304 247.615L248.987 254.946L261.669 262.277L274.352 269.608M122.234 166.938L134.917 174.269L147.599 181.6L160.282 188.931L172.965 196.262L185.647 203.593L198.33 210.924L211.012 218.255L223.695 225.586L236.377 232.917L249.06 240.248L261.743 247.579L274.425 254.91L287.108 262.241M134.99 159.607L147.673 166.938L160.355 174.269L173.038 181.6L185.72 188.931L198.403 196.262L211.086 203.593L223.768 210.924L236.451 218.255L249.133 225.586L261.816 232.917L274.499 240.248L287.181 247.579L299.864 254.91M147.746 152.239L160.429 159.57L173.111 166.901L185.794 174.232L198.476 181.563L211.159 188.894L223.842 196.225L236.524 203.556L249.207 210.887L261.889 218.218L274.572 225.549L287.254 232.88L299.937 240.211L312.62 247.542M160.502 144.872L173.184 152.203L185.867 159.534L198.55 166.865L211.232 174.196L223.915 181.527L236.597 188.858L249.28 196.188L261.963 203.519L274.645 210.85L287.328 218.181L300.01 225.512L312.693 232.843L325.376 240.174M173.258 137.504L185.94 144.835L198.623 152.166L211.306 159.497L223.988 166.828L236.671 174.159L249.353 181.49L262.036 188.821L274.718 196.152L287.401 203.483L300.084 210.814L312.766 218.145L325.449 225.476L338.131 232.807M186.014 130.136L198.696 137.467L211.379 144.798L224.061 152.129L236.744 159.46L249.427 166.791L262.109 174.122L274.792 181.453L287.474 188.784L300.157 196.115L312.84 203.446L325.522 210.777L338.205 218.108L350.887 225.439M184.987 320.998L197.743 313.631L210.499 306.263L223.255 298.895L236.011 291.528L248.767 284.16L261.523 276.793L274.279 269.425L287.035 262.057L299.79 254.69L312.546 247.322L325.302 239.954L338.058 232.587L350.814 225.219M172.305 313.704L185.061 306.336L197.817 298.969L210.572 291.601L223.328 284.234L236.084 276.866L248.84 269.498L261.596 262.131L274.352 254.763L287.108 247.395L299.864 240.028L312.62 232.66L325.376 225.292L338.131 217.925M159.659 306.373L172.415 299.005L185.171 291.638L197.927 284.27L210.682 276.903L223.438 269.535L236.194 262.167L248.95 254.8L261.706 247.432L274.462 240.064L287.218 232.697L299.974 225.329L312.73 217.961L325.485 210.594M146.976 299.042L159.732 291.674L172.488 284.307L185.244 276.939L198 269.572L210.756 262.204L223.512 254.836L236.268 247.469L249.023 240.101L261.779 232.733L274.535 225.366L287.291 217.998L300.047 210.631L312.803 203.263M134.294 291.748L147.05 284.38L159.805 277.013L172.561 269.645L185.317 262.277L198.073 254.91L210.829 247.542L223.585 240.174L236.341 232.807L249.097 225.439L261.853 218.071L274.609 210.704L287.364 203.336L300.12 195.969M121.611 284.417L134.367 277.049L147.123 269.682L159.879 262.314L172.635 254.946L185.391 247.579L198.146 240.211L210.902 232.843L223.658 225.476L236.414 218.108L249.17 210.74L261.926 203.373L274.682 196.005L287.438 188.638M108.928 277.086L121.684 269.718L134.44 262.351L147.196 254.983L159.952 247.615L172.708 240.248L185.464 232.88L198.22 225.512L210.976 218.145L223.732 210.777L236.487 203.409L249.243 196.042L261.999 188.674L274.755 181.307M96.2459 269.791L109.002 262.424L121.758 255.056L134.514 247.689L147.269 240.321L160.025 232.953L172.781 225.586L185.537 218.218L198.293 210.85L211.049 203.483L223.805 196.115L236.561 188.748L249.317 181.38L262.073 174.012M83.5999 262.461L96.3558 255.093L109.112 247.725L121.868 240.358L134.624 232.99L147.379 225.622L160.135 218.291L172.891 210.924L185.647 203.556L198.403 196.188L211.159 188.821L223.915 181.453L236.671 174.086L249.427 166.718M70.9173 255.13L83.6732 247.762L96.4291 240.394L109.185 233.027L121.941 225.659L134.697 218.291L147.453 210.924L160.209 203.556L172.965 196.188L185.72 188.821L198.476 181.453L211.232 174.086L223.988 166.718L236.744 159.35M58.2347 247.835L70.9906 240.468L83.7465 233.1L96.5024 225.732L109.258 218.365L122.014 210.997L134.77 203.629L147.526 196.262L160.282 188.894L173.038 181.527L185.794 174.159L198.55 166.791L211.306 159.424L224.061 152.056M45.5522 240.504L58.3081 233.137L71.064 225.769L83.8199 218.401L96.5758 211.034L109.332 203.666L122.088 196.298L134.843 188.967L147.599 181.6L160.355 174.232L173.111 166.865L185.867 159.497L198.623 152.129L211.379 144.762M32.8696 233.173L45.6255 225.806L58.3814 218.438L71.1373 211.07L83.8932 203.703L96.6491 196.335L109.405 188.967L122.161 181.6L134.917 174.232L147.673 166.865L160.429 159.497L173.184 152.129L185.94 144.762L198.696 137.394M20.2236 225.879L32.9429 218.511L45.6988 211.144L58.4547 203.776L71.2106 196.408L83.9665 189.041L96.7224 181.673L109.478 174.306L122.234 166.938L134.99 159.57L147.746 152.203L160.502 144.835L173.258 137.467L186.014 130.1" stroke="url(#paint0_linear_320_430)" stroke-width="0.511794" stroke-miterlimit="10"/>
<path opacity="0.2" d="M201.042 226.209L206.173 208.504L197.596 213.453L184.547 221.004L157.166 212.61L171.718 228.445L150.092 240.944L167.209 239.368L180.405 238.158L185.06 243.766L187.406 246.625L194.114 254.69L196.973 244.096L197.303 242.887L198.952 236.765L205.99 236.179L229.449 234.273L201.042 226.209ZM269.257 232.44C267.131 225.146 263.282 218.438 257.674 212.317C252.469 206.562 245.761 201.357 237.55 196.592L197.596 173.536L123.407 193.109L89.501 235.922L120.878 254.03L129.455 258.978C130.188 259.381 130.921 259.821 131.654 260.224C132.057 260.444 132.497 260.701 132.937 260.921C140.341 264.843 148.405 268.142 157.166 270.744C157.349 270.818 157.532 270.854 157.679 270.891C160.648 271.771 163.727 272.577 166.843 273.31C173.477 274.85 180.442 276.023 187.736 276.866C188.982 277.012 190.265 277.159 191.548 277.269C195.324 277.636 199.062 277.892 202.728 278.039C203.864 278.075 205.037 278.112 206.173 278.149C220.102 278.442 233.188 277.122 245.431 274.19C246.201 274.007 246.97 273.823 247.74 273.603C251.112 272.724 254.448 271.734 257.674 270.598C257.747 270.524 257.857 270.415 257.93 270.341C269.586 259.051 273.362 246.442 269.257 232.44ZM247.3 264.623C244.148 265.539 240.959 266.346 237.733 267.006C237.697 267.006 237.66 267.006 237.66 267.042C227.617 269.132 217.133 270.085 206.21 269.901C205.844 269.901 205.514 269.901 205.147 269.865C203.534 269.828 201.922 269.755 200.272 269.681C197.413 269.535 194.481 269.278 191.548 268.985C174.944 267.226 160.172 263.303 147.232 257.145C145.693 256.412 144.153 255.643 142.651 254.836C141.624 254.286 140.598 253.737 139.608 253.15L131.837 248.641L106.729 234.126L134.183 199.267L194.554 183.396L197.633 185.192L227.433 202.42C242.095 210.887 251.259 220.894 254.888 232.403C258.223 243.033 256.354 252.967 249.243 262.204C248.62 263.01 247.96 263.817 247.3 264.623ZM206.173 208.504L197.596 213.453L184.547 221.004L157.166 212.61L171.718 228.445L150.092 240.944L167.209 239.368L180.405 238.158L185.06 243.766L187.406 246.625L194.114 254.69L196.973 244.096L197.303 242.887L198.952 236.765L205.99 236.179L229.449 234.273L201.042 226.245L206.173 208.504ZM201.042 226.209L206.173 208.504L197.596 213.453L184.547 221.004L157.166 212.61L171.718 228.445L150.092 240.944L167.209 239.368L180.405 238.158L185.06 243.766L187.406 246.625L194.114 254.69L196.973 244.096L197.303 242.887L198.952 236.765L205.99 236.179L229.449 234.273L201.042 226.209Z" fill="#A8A8A8"/>
<path d="M257.674 249.264V249.155" stroke="#459ED7" stroke-width="0.511794" stroke-miterlimit="10"/>
<path d="M257.674 216.165V228.738C237.99 235.555 215.961 237.791 191.549 235.409C167.137 233.026 146.427 226.905 129.419 217.081L89.4648 194.025V181.453L96.2827 185.375L129.419 204.509C146.427 214.332 167.137 220.417 191.512 222.799C215.961 225.219 237.99 222.983 257.674 216.165Z" fill="white" stroke="#459ED7" stroke-width="0.511794" stroke-miterlimit="10"/>
<path d="M204.416 172.692L206.176 166.607V154.035L200.274 157.444L187.775 164.665L184.549 166.534L166.845 161.109L157.131 158.14V170.713L164.133 178.337L150.13 186.401H150.094L150.13 198.974L180.407 196.188L194.08 212.646L194.116 212.719L198.918 194.832V182.259L201.667 182.039L229.415 179.766L204.416 172.692Z" fill="white" stroke="#459ED7" stroke-width="0.511794" stroke-miterlimit="10" stroke-linejoin="round"/>
<path opacity="0.2" d="M270.871 188.893V188.637C270.871 189.443 270.835 190.213 270.798 190.983C270.835 190.286 270.871 189.59 270.871 188.893ZM270.871 188.16C270.871 188.307 270.871 188.453 270.871 188.6V188.343C270.871 188.307 270.871 188.233 270.871 188.16ZM270.725 185.374C270.761 185.594 270.761 185.814 270.798 186.034C270.798 185.851 270.761 185.668 270.761 185.448C270.725 185.411 270.725 185.374 270.725 185.374Z" fill="white" stroke="#459ED7" stroke-width="0.511794" stroke-miterlimit="10"/>
<path d="M270.871 188.16C270.871 188.087 270.871 188.014 270.871 187.977C270.871 187.757 270.871 187.537 270.835 187.317C270.835 187.097 270.798 186.877 270.798 186.657C270.798 186.438 270.761 186.218 270.761 185.998C270.761 185.778 270.725 185.558 270.688 185.338C270.651 185.118 270.651 184.861 270.615 184.641C270.578 184.458 270.578 184.275 270.541 184.092C270.541 184.055 270.541 184.018 270.541 183.982C270.505 183.762 270.468 183.578 270.468 183.359C270.431 183.139 270.395 182.882 270.358 182.662C270.321 182.369 270.248 182.076 270.212 181.782C270.175 181.562 270.138 181.342 270.065 181.159C270.028 181.013 269.992 180.829 269.955 180.683C269.882 180.353 269.808 180.023 269.698 179.693C269.662 179.473 269.588 179.253 269.515 178.997C269.515 178.96 269.478 178.887 269.478 178.85C269.405 178.557 269.332 178.263 269.222 177.97C267.132 170.786 263.357 164.188 257.895 158.103C257.822 157.993 257.712 157.92 257.639 157.81C255.146 155.098 252.361 152.458 249.208 149.966C245.726 147.217 241.841 144.578 237.515 142.085L205.955 123.868L197.562 119.029L167.211 127.057L131.803 136.404L123.409 138.603L120.88 141.792L89.5029 181.416L96.3207 185.338L129.457 204.472C146.465 214.295 167.175 220.38 191.55 222.763C215.962 225.145 237.992 222.909 257.676 216.091C264.603 209.457 268.782 202.346 270.248 194.758C270.395 193.988 270.505 193.219 270.615 192.449C270.688 191.936 270.725 191.423 270.761 190.909C270.798 190.14 270.835 189.37 270.835 188.563C270.871 188.49 270.871 188.307 270.871 188.16ZM247.302 210.153C230.111 215.175 211.527 216.641 191.55 214.552C171.573 212.462 154.272 207.184 139.61 198.717L106.731 179.73L130.666 149.343L131.693 148.06L134.185 144.908L142.689 142.672L185.062 131.455L194.519 128.963L197.305 130.575L197.598 130.759L227.399 147.987C231.027 150.076 234.29 152.239 237.222 154.511C237.332 154.621 237.479 154.694 237.589 154.804C240.521 157.114 243.124 159.496 245.396 161.989C249.905 166.937 253.057 172.252 254.853 177.97C258.519 189.48 255.989 200.22 247.302 210.153Z" fill="#3FA8F4" stroke="#459ED7" stroke-width="0.511794" stroke-miterlimit="10" stroke-linecap="round" stroke-linejoin="round"/>
<path d="M254.853 177.97C253.057 172.252 249.905 166.937 245.396 161.989C243.124 159.496 240.521 157.114 237.589 154.805C237.479 154.695 237.332 154.621 237.222 154.511C234.29 152.239 230.991 150.076 227.399 147.987L197.598 130.759L197.305 130.576L194.519 128.963L185.062 131.455L142.653 142.599L134.149 144.834L131.656 147.987L130.63 149.27L106.694 179.657L139.574 198.644C154.236 207.111 171.537 212.389 191.514 214.479C211.491 216.568 230.075 215.102 247.266 210.08C255.99 200.22 258.519 189.48 254.853 177.97ZM229.452 192.303L198.955 194.795L194.153 212.683L194.116 212.609L180.444 196.151L150.167 198.937L150.13 186.364H150.167L164.206 178.264L157.205 170.639V158.067L166.918 161.036L184.623 166.461L187.848 164.591L200.348 157.37L206.249 153.962V166.607L204.49 172.692L229.525 179.767V192.303H229.452Z" fill="white" stroke="#459ED7" stroke-width="0.511794" stroke-miterlimit="10"/>
<path d="M229.452 179.766V192.302L198.955 194.794V182.222L201.704 182.002L229.452 179.766Z" fill="white" stroke="#459ED7" stroke-width="0.511794" stroke-miterlimit="10" stroke-linejoin="round"/>
<path opacity="0.2" d="M206.176 154.035V166.607L204.416 172.692L201.044 171.739L201.777 169.136L202.73 165.838L205.113 157.627L206.176 154.035Z" fill="white" stroke="#459ED7" stroke-width="0.511794" stroke-miterlimit="10" stroke-linejoin="round"/>
<path opacity="0.2" d="M171.72 173.938L170.364 174.708L164.169 178.3L157.168 170.676V158.103L157.681 158.69L171.72 173.938Z" fill="white" stroke="#459ED7" stroke-width="0.511794" stroke-miterlimit="10" stroke-linejoin="round"/>
<path opacity="0.2" d="M194.153 200.146V212.682L194.08 212.645L180.407 196.187V183.615L194.153 200.146Z" fill="white" stroke="#459ED7" stroke-width="0.511794" stroke-miterlimit="10" stroke-linejoin="round"/>
<path d="M198.955 182.222V194.795L194.153 212.682V200.146L198.955 182.222Z" fill="white" stroke="#459ED7" stroke-width="0.511794" stroke-miterlimit="10" stroke-linejoin="round"/>
<path d="M229.452 179.766L201.704 182.039L198.955 182.259L194.153 200.147L180.444 183.652L169.998 184.605L150.168 186.438H150.131H150.168L164.206 178.337L170.401 174.781L171.757 173.975L157.718 158.726L157.205 158.14L166.919 161.109L184.623 166.534L187.849 164.665L200.348 157.444L206.249 154.035L205.186 157.627L202.804 165.838L201.851 169.136L201.081 171.739L204.453 172.692L229.452 179.766Z" fill="#3FA8F4" stroke="#459ED7" stroke-width="0.511794" stroke-miterlimit="10" stroke-linecap="round" stroke-linejoin="round"/>
<path d="M180.407 183.615V196.187L150.13 198.973L150.094 186.4H150.13L169.961 184.568L180.407 183.615Z" fill="white" stroke="#459ED7" stroke-width="0.511794" stroke-miterlimit="10" stroke-linejoin="round"/>
<path d="M194.153 200.145V199.853" stroke="#459ED7" stroke-width="0.511794" stroke-miterlimit="10" stroke-linejoin="round"/>
<path d="M194.153 212.792V212.682" stroke="#459ED7" stroke-width="0.511794" stroke-miterlimit="10"/>
<path d="M198.955 182.222V182.112" stroke="#459ED7" stroke-width="0.511794" stroke-miterlimit="10" stroke-linejoin="round"/>
<path d="M198.955 194.867V194.794" stroke="#459ED7" stroke-width="0.511794" stroke-miterlimit="10" stroke-linejoin="round"/>
<path d="M206.176 154.035V166.607L204.416 172.692L201.044 171.739L201.777 169.136L202.73 165.838L205.113 157.627L206.176 154.035Z" fill="white" stroke="#459ED7" stroke-width="0.511794" stroke-miterlimit="10" stroke-linejoin="round"/>
<path d="M270.871 188.893V201.209C270.871 211.143 266.472 220.306 257.712 228.737V216.164C264.64 209.53 268.818 202.419 270.285 194.831C270.431 194.061 270.541 193.292 270.651 192.522C270.724 192.009 270.761 191.496 270.798 190.982C270.834 190.286 270.871 189.59 270.871 188.893Z" fill="white" stroke="#459ED7" stroke-width="0.511794" stroke-miterlimit="10"/>
<path d="M270.87 188.894V188.637V188.38" fill="white"/>
<path d="M270.87 188.894V188.637V188.38" stroke="#459ED7" stroke-width="0.511794" stroke-miterlimit="10"/>
<path d="M70.9189 77.2429L71.1389 92.0148C71.1755 95.1672 72.4218 98.2095 74.6211 100.482L86.0208 112.432C88.2567 114.778 89.503 117.893 89.503 121.119V236.325V229.177" stroke="#009CF2" stroke-width="0.511794" stroke-miterlimit="10"/>
<path d="M70.9183 77.2433C73.1654 77.2433 74.987 75.4217 74.987 73.1746C74.987 70.9276 73.1654 69.106 70.9183 69.106C68.6712 69.106 66.8496 70.9276 66.8496 73.1746C66.8496 75.4217 68.6712 77.2433 70.9183 77.2433Z" stroke="#009CF2" stroke-width="0.511794" stroke-miterlimit="10"/>
<path d="M257.675 279.064V148.976C257.675 145.64 258.994 142.451 261.34 140.105L272.667 128.779C275.013 126.433 276.332 123.244 276.332 119.909V95.3497" stroke="#009CF2" stroke-width="0.511794" stroke-miterlimit="10"/>
<path d="M276.368 95.3133C278.616 95.3133 280.437 93.4917 280.437 91.2446C280.437 88.9975 278.616 87.1759 276.368 87.1759C274.121 87.1759 272.3 88.9975 272.3 91.2446C272.3 93.4917 274.121 95.3133 276.368 95.3133Z" stroke="#009CF2" stroke-width="0.511794" stroke-miterlimit="10"/>
<path d="M194.151 163.639L198.952 145.751L229.449 143.259L201.042 135.231L206.173 117.527L184.547 130.026L157.166 121.632L171.718 137.467L150.092 149.967L180.405 147.181L194.151 163.639ZM257.674 179.657C237.99 186.512 215.96 188.711 191.548 186.328C167.136 183.946 146.426 177.824 129.455 168.038L89.501 144.982L123.407 102.132L197.596 82.5583L237.55 105.614C254.558 115.438 265.115 127.387 269.257 141.463C273.399 155.575 269.55 168.294 257.674 179.657ZM247.3 173.646C255.987 163.712 258.517 152.972 254.888 141.463C251.259 129.916 242.095 119.946 227.433 111.479L194.554 92.4918L134.183 108.363L106.729 143.222L139.608 162.209C154.27 170.677 171.571 175.955 191.548 178.044C211.525 180.134 230.072 178.667 247.3 173.646Z" stroke="#459ED7" stroke-width="0.516599" stroke-miterlimit="10"/>
<defs>
<linearGradient id="paint0_linear_320_430" x1="20.1137" y1="225.559" x2="350.913" y2="225.559" gradientUnits="userSpaceOnUse">
<stop stop-color="white"/>
<stop offset="1" stop-color="#3FA8F4"/>
</linearGradient>
</defs>
</svg>
