<svg width="371" height="370" viewBox="0 0 371 370" fill="none" xmlns="http://www.w3.org/2000/svg">
<rect width="369.457" height="369.457" transform="translate(0.913086)" fill="white"/>
<path d="M17.5381 239.412L30.419 246.858L43.2999 254.304L56.1808 261.749L69.0616 269.195L81.9425 276.64L94.8234 284.086L107.704 291.532L120.585 298.977L133.466 306.423L146.347 313.868L159.228 321.314L172.109 328.76L184.99 336.205M30.4562 231.967L43.3371 239.412L56.218 246.858L69.0989 254.304L81.9798 261.749L94.8607 269.195L107.742 276.64L120.622 284.086L133.503 291.532L146.384 298.977L159.265 306.423L172.146 313.868L185.027 321.314L197.908 328.76M43.4116 224.484L56.2924 231.929L69.1733 239.375L82.0542 246.821L94.9351 254.266L107.816 261.712L120.697 269.157L133.578 276.603L146.459 284.049L159.34 291.494L172.22 298.94L185.101 306.386L197.982 313.831L210.863 321.277M56.4041 217.001L69.285 224.447L82.1659 231.892L95.0468 239.338L107.928 246.783L120.809 254.229L133.689 261.675L146.57 269.12L159.451 276.566L172.332 284.011L185.213 291.457L198.094 298.903L210.975 306.348L223.856 313.794M69.3222 209.518L82.2031 216.964L95.084 224.409L107.965 231.855L120.846 239.301L133.727 246.746L146.608 254.192L159.488 261.637L172.369 269.083L185.25 276.529L198.131 283.974L211.012 291.42L223.893 298.865L236.774 306.311M82.2776 202.035L95.1585 209.481L108.039 216.927L120.92 224.372L133.801 231.818L146.682 239.263L159.563 246.709L172.444 254.155L185.325 261.6L198.206 269.046L211.087 276.491L223.967 283.937L236.848 291.383L249.729 298.828M95.2329 194.553L108.114 201.998L120.995 209.444L133.876 216.889L146.757 224.335L159.637 231.781L172.518 239.226L185.399 246.672L198.28 254.117L211.161 261.563L224.042 269.009L236.923 276.454L249.804 283.9L262.685 291.345M108.188 187.07L121.069 194.515L133.95 201.961L146.831 209.407L159.712 216.852L172.593 224.298L185.474 231.743L198.355 239.189L211.235 246.635L224.116 254.08L236.997 261.526L249.878 268.971L262.759 276.417L275.64 283.863M121.144 179.587L134.025 187.032L146.905 194.478L159.786 201.924L172.667 209.369L185.548 216.815L198.429 224.261L211.31 231.706L224.191 239.152L237.072 246.597L249.953 254.043L262.833 261.489L275.714 268.934L288.595 276.38M134.099 172.104L146.98 179.55L159.861 186.995L172.742 194.441L185.623 201.886L198.503 209.332L211.384 216.778L224.265 224.223L237.146 231.669L250.027 239.114L262.908 246.56L275.789 254.006L288.67 261.451L301.551 268.897M147.054 164.621L159.935 172.067L172.816 179.512L185.697 186.958L198.578 194.404L211.459 201.849L224.34 209.295L237.221 216.74L250.101 224.186L262.982 231.632L275.863 239.077L288.744 246.523L301.625 253.968L314.506 261.414M160.01 157.138L172.891 164.584L185.771 172.03L198.652 179.475L211.533 186.921L224.414 194.366L237.295 201.812L250.176 209.258L263.057 216.703L275.938 224.149L288.819 231.594L301.699 239.04L314.58 246.486L327.461 253.931M172.965 149.693L185.846 157.138L198.727 164.584L211.608 172.03L224.489 179.475L237.369 186.921L250.25 194.366L263.131 201.812L276.012 209.258L288.893 216.703L301.774 224.149L314.655 231.594L327.536 239.04L340.417 246.486M185.92 142.21L198.801 149.656L211.682 157.101L224.563 164.547L237.444 171.992L250.325 179.438L263.206 186.884L276.087 194.329L288.968 201.775L301.848 209.22L314.729 216.666L327.61 224.112L340.491 231.557L353.372 239.003M184.878 336.056L197.833 328.573L210.789 321.091L223.744 313.608L236.699 306.125L249.655 298.642L262.61 291.159L275.565 283.676L288.521 276.194L301.476 268.711L314.431 261.228L327.387 253.745L340.342 246.262L353.298 238.779M171.997 328.611L184.952 321.128L197.908 313.645L210.863 306.162L223.818 298.679L236.774 291.196L249.729 283.714L262.685 276.231L275.64 268.748L288.595 261.265L301.551 253.782L314.506 246.299L327.461 238.817L340.417 231.334M159.153 321.202L172.109 313.719L185.064 306.237L198.019 298.754L210.975 291.271L223.93 283.788L236.886 276.305L249.841 268.822L262.796 261.34L275.752 253.857L288.707 246.374L301.662 238.891L314.618 231.408L327.573 223.925M146.273 313.757L159.228 306.274L172.183 298.791L185.139 291.308L198.094 283.825L211.049 276.342L224.005 268.86L236.96 261.377L249.915 253.894L262.871 246.411L275.826 238.928L288.781 231.446L301.737 223.963L314.692 216.48M133.392 306.348L146.347 298.865L159.302 291.383L172.258 283.9L185.213 276.417L198.168 268.934L211.124 261.451L224.079 253.968L237.034 246.486L249.99 239.003L262.945 231.52L275.9 224.037L288.856 216.554L301.811 209.071M120.511 298.903L133.466 291.42L146.421 283.937L159.377 276.454L172.332 268.971L185.287 261.489L198.243 254.006L211.198 246.523L224.154 239.04L237.109 231.557L250.064 224.074L263.02 216.592L275.975 209.109L288.93 201.626M107.63 291.457L120.585 283.974L133.541 276.491L146.496 269.009L159.451 261.526L172.407 254.043L185.362 246.56L198.317 239.077L211.273 231.594L224.228 224.112L237.183 216.629L250.139 209.146L263.094 201.663L276.049 194.18M94.749 284.011L107.704 276.529L120.66 269.046L133.615 261.563L146.57 254.08L159.526 246.597L172.481 239.114L185.436 231.632L198.392 224.149L211.347 216.666L224.302 209.183L237.258 201.7L250.213 194.217L263.168 186.735M81.9053 276.603L94.8607 269.12L107.816 261.637L120.771 254.155L133.727 246.672L146.682 239.189L159.637 231.706L172.593 224.223L185.548 216.74L198.503 209.258L211.459 201.775L224.414 194.292L237.369 186.809L250.325 179.326M69.0244 269.157L81.9798 261.675L94.9351 254.192L107.89 246.709L120.846 239.226L133.801 231.743L146.757 224.261L159.712 216.778L172.667 209.332L185.623 201.849L198.578 194.366L211.533 186.884L224.489 179.401L237.444 171.918M56.1435 261.712L69.0989 254.229L82.0542 246.746L95.0096 239.263L107.965 231.781L120.92 224.298L133.876 216.815L146.831 209.332L159.786 201.849L172.742 194.366L185.697 186.884L198.652 179.401L211.608 171.918L224.563 164.435M43.2626 254.304L56.218 246.821L69.1733 239.338L82.1287 231.855L95.084 224.372L108.039 216.889L120.995 209.407L133.95 201.924L146.905 194.441L159.861 186.958L172.816 179.475L185.771 171.992L198.727 164.51L211.682 157.027M30.3817 246.858L43.3371 239.375L56.2924 231.892L69.2478 224.409L82.2031 216.927L95.1585 209.444L108.114 201.961L121.069 194.478L134.025 186.995L146.98 179.55L159.935 172.067L172.891 164.584L185.846 157.101L198.801 149.618M17.5381 239.412L30.4562 231.967L43.4116 224.484L56.3669 217.001L69.3222 209.518L82.2776 202.035L95.2329 194.553L108.188 187.07L121.144 179.587L134.099 172.104L147.054 164.621L160.01 157.138L172.965 149.656L185.92 142.173" stroke="url(#paint0_linear_320_405)" stroke-width="0.519796" stroke-miterlimit="10"/>
<path opacity="0.2" d="M271.284 189.527L271.247 199.616L270.986 246.3L253.527 246.337L253.564 236.807L253.713 209.742L253.75 199.653L173.672 199.802L173.71 189.714L271.284 189.527ZM125.723 273.588L125.76 264.319L125.909 236.993L125.946 226.904L108.486 226.942L108.449 237.03L108.412 246.524L108.226 283.752L125.686 283.714L205.763 283.565L205.8 273.477L125.723 273.588Z" fill="#A8A8A8"/>
<path d="M271.285 241.572V102.302C271.285 98.9145 272.625 95.6756 275.008 93.2931L286.511 81.7896C288.894 79.407 290.234 76.1682 290.234 72.7804V47.8376" stroke="#009CF2" stroke-width="0.519796" stroke-miterlimit="10"/>
<path d="M290.235 47.7999C292.517 47.7999 294.367 45.9498 294.367 43.6676C294.367 41.3854 292.517 39.5353 290.235 39.5353C287.953 39.5353 286.103 41.3854 286.103 43.6676C286.103 45.9498 287.953 47.7999 290.235 47.7999Z" stroke="#009CF2" stroke-width="0.519796" stroke-miterlimit="10"/>
<path d="M108.189 291.234V172.961C108.189 169.015 106.625 165.218 103.833 162.426L95.01 153.602C92.2179 150.81 90.6543 147.013 90.6543 143.067V98.6912" stroke="#009CF2" stroke-width="0.519796" stroke-miterlimit="10"/>
<path d="M90.6548 98.6534C92.937 98.6534 94.7871 96.8033 94.7871 94.5211C94.7871 92.2389 92.937 90.3888 90.6548 90.3888C88.3726 90.3888 86.5225 92.2389 86.5225 94.5211C86.5225 96.8033 88.3726 98.6534 90.6548 98.6534Z" stroke="#009CF2" stroke-width="0.519796" stroke-miterlimit="10"/>
<path d="M159.86 186.959V97.2764C159.86 93.3303 161.424 89.533 164.216 86.7409L175.049 75.9076C177.841 73.1155 179.405 69.3182 179.405 65.372V42.4396" stroke="#009CF2" stroke-width="0.519796" stroke-miterlimit="10"/>
<path d="M179.404 42.4397C181.686 42.4397 183.536 40.5896 183.536 38.3074C183.536 36.0251 181.686 34.175 179.404 34.175C177.122 34.175 175.271 36.0251 175.271 38.3074C175.271 40.5896 177.122 42.4397 179.404 42.4397Z" stroke="#009CF2" stroke-width="0.519796" stroke-miterlimit="10"/>
<path d="M271.285 137.409L271.248 147.497L270.987 194.181L253.528 194.219L253.565 184.688L253.714 157.623L253.751 147.535L173.673 147.684L173.711 137.595L271.285 137.409ZM125.724 221.469L125.761 212.2L125.91 184.874L125.947 174.786L108.487 174.823L108.45 184.912L108.413 194.405L108.227 231.633L125.687 231.595L205.764 231.447L205.801 221.358L125.724 221.469Z" fill="#3FA8F4" stroke="#459ED7" stroke-width="0.519796" stroke-miterlimit="10" stroke-linejoin="round"/>
<path d="M205.726 231.371V241.46L108.188 241.646L108.226 231.557L205.726 231.371Z" fill="white" stroke="#459ED7" stroke-width="0.519796" stroke-miterlimit="10"/>
<path d="M270.987 194.069V204.158L253.49 204.344V194.255L270.987 194.069Z" fill="white" stroke="#459ED7" stroke-width="0.519796" stroke-miterlimit="10"/>
<path d="M253.714 147.497V157.586L173.674 157.772L173.711 147.683L253.714 147.497Z" fill="white" stroke="#459ED7" stroke-width="0.519796" stroke-miterlimit="10"/>
<path d="M271.284 102.6L271.247 112.689L270.986 159.373L253.527 159.41L253.564 149.88L253.713 122.815L253.75 112.726L173.672 112.875L173.71 102.786L271.284 102.6ZM125.723 186.624L125.76 177.354L125.909 150.029L125.946 139.94L108.486 139.977L108.449 150.066L108.412 159.559L108.226 196.787L125.686 196.75L205.763 196.601L205.8 186.512L125.723 186.624Z" stroke="#459ED7" stroke-width="0.516599" stroke-miterlimit="10"/>
<defs>
<linearGradient id="paint0_linear_320_405" x1="17.4264" y1="239.114" x2="353.398" y2="239.114" gradientUnits="userSpaceOnUse">
<stop stop-color="white"/>
<stop offset="1" stop-color="#3FA8F4"/>
</linearGradient>
</defs>
</svg>
