<svg width="280" height="76" viewBox="0 0 280 76" fill="none" xmlns="http://www.w3.org/2000/svg">
<g clip-path="url(#clip0_147_51)">
<path d="M140.116 34.8588V19.6128H143.588V41.0644H140.964L128.697 25.8951V41.0644H125.225V19.6128H127.848L140.116 34.8588Z" fill="white"/>
<path d="M163.957 36.5442H152.229L150.223 41.0644H146.52L156.241 19.6128H160.022L169.744 41.0644H166.04L163.957 36.5442ZM158.17 23.2136L153.541 33.4797H162.722L158.17 23.2136Z" fill="white"/>
<path d="M189.958 19.6128V32.1773C189.958 38.4596 185.792 41.6773 180.545 41.4475C175.685 41.3709 171.595 38.3063 171.595 32.1773V19.6128H174.99V32.1773C174.99 36.0846 177.305 38.1531 180.468 38.3063C183.94 38.4596 186.486 36.2378 186.486 32.1773V19.6128H189.958Z" fill="white"/>
<path d="M199.989 22.6773H192.89V19.6128C199.063 19.6128 204.386 19.6128 210.559 19.6128V22.6773H203.461V41.0644H199.989V22.6773Z" fill="white"/>
<path d="M213.8 41.0644V19.6128H217.195V41.0644H213.8Z" fill="white"/>
<path d="M226.145 19.6128V37.9233H237.564V41.141H222.673V19.6894H226.145V19.6128Z" fill="white"/>
<path d="M258.319 19.6128V32.1773C258.319 38.4596 254.153 41.6773 248.906 41.4475C244.122 41.3709 240.033 38.3063 240.033 32.1773V19.6128H243.428V32.1773C243.428 36.0846 245.743 38.1531 248.906 38.3063C252.378 38.4596 254.924 36.2378 254.924 32.1773V19.6128H258.319Z" fill="white"/>
<path d="M276.451 24.3629C275.448 22.9073 273.364 21.9879 271.127 21.9879C268.195 21.9879 266.112 23.2137 266.112 25.2056C266.112 27.2742 268.504 27.8871 271.358 28.2702C275.833 28.8831 280.077 30.1089 280.077 34.9355C280.077 39.7621 275.602 41.5242 271.127 41.5242C266.96 41.5242 263.797 40.2984 261.791 36.621L264.414 34.9355C265.957 37.5403 268.658 38.4597 271.127 38.4597C273.75 38.4597 276.605 37.6169 276.605 34.9355C276.605 32.6371 274.136 31.7944 271.05 31.4113C266.729 30.7984 262.64 29.7258 262.64 25.129C262.64 20.6855 267.115 19 270.973 19C274.059 19 277.222 19.7661 279.074 22.6008L276.451 24.3629Z" fill="white"/>
<path d="M127.925 49.7217H125.225V48.4958C127.616 48.4958 129.623 48.4958 132.014 48.4958V49.7217H129.314V56.77H128.002V49.7217H127.925Z" fill="white"/>
<path d="M141.273 56.8469H135.101C135.101 54.0889 135.101 51.3308 135.101 48.5728H141.196V49.8752H136.412V52.0969H140.964V53.3228H136.412V55.5445H141.196V56.8469H141.273Z" fill="white"/>
<path d="M151.766 55.7743C150.917 56.617 149.837 57.0001 148.68 57.0001C145.671 57.0001 144.282 54.9315 144.282 52.7864C144.282 50.6412 145.671 48.4194 148.68 48.4194C149.76 48.4194 150.84 48.8025 151.689 49.6452L150.763 50.488C150.146 49.8751 149.374 49.6452 148.602 49.6452C146.519 49.6452 145.516 51.1775 145.516 52.7098C145.516 54.242 146.442 55.6977 148.602 55.6977C149.374 55.6977 150.223 55.3912 150.84 54.7783L151.766 55.7743Z" fill="white"/>
<path d="M160.794 56.8469V53.3994H156.396V56.8469H155.084V48.5728H156.396V52.1736H160.794V48.5728H162.105V56.8469H160.794Z" fill="white"/>
<path d="M171.827 54.4719V48.5728H173.138V56.8469H172.135L167.429 51.0244V56.8469H166.117V48.5728H167.12L171.827 54.4719Z" fill="white"/>
<path d="M185.175 52.7097C185.175 54.9315 183.786 57 180.931 57C178.076 57 176.688 54.9315 176.688 52.7097C176.688 50.1815 178.462 48.3428 180.931 48.3428C183.786 48.4194 185.175 50.4879 185.175 52.7097ZM180.931 55.7742C183.014 55.7742 183.863 54.3186 183.863 52.7097C183.863 51.1775 183.014 49.5686 180.931 49.5686C179.002 49.5686 177.999 50.871 177.999 52.7097C177.999 54.242 178.848 55.7742 180.931 55.7742Z" fill="white"/>
<path d="M189.958 48.5728V55.6211H194.356V56.8469H188.646V48.5728H189.958Z" fill="white"/>
<path d="M205.313 52.7097C205.313 54.9315 203.924 57 201.069 57C198.214 57 196.826 54.9315 196.826 52.7097C196.826 50.1815 198.6 48.3428 201.069 48.3428C203.924 48.4194 205.313 50.4879 205.313 52.7097ZM201.069 55.7742C203.152 55.7742 204.001 54.3186 204.001 52.7097C204.001 51.1775 203.152 49.5686 201.069 49.5686C199.14 49.5686 198.137 50.871 198.137 52.7097C198.137 54.242 198.986 55.7742 201.069 55.7742Z" fill="white"/>
<path d="M214.88 50.4879C214.263 49.875 213.414 49.5686 212.643 49.5686C210.714 49.5686 209.556 51.0242 209.556 52.7863C209.556 54.3186 210.482 55.7742 212.643 55.7742C213.337 55.7742 214.031 55.621 214.649 55.0081V53.3226H212.334V52.1734H215.883V55.5444C215.034 56.4637 214.031 57 212.643 57C209.556 57 208.245 55.0081 208.245 52.7863C208.245 50.4113 209.788 48.3428 212.643 48.3428C213.723 48.3428 214.88 48.7258 215.729 49.5686L214.88 50.4879Z" fill="white"/>
<path d="M219.509 56.8469V48.5728H220.821V56.8469H219.509Z" fill="white"/>
<path d="M230.928 56.8469H224.756C224.756 54.0889 224.756 51.3308 224.756 48.5728H230.851V49.8752H226.068V52.0969H230.62V53.3228H226.068V55.5445H230.851V56.8469H230.928Z" fill="white"/>
<path d="M239.57 50.4113C239.184 49.875 238.413 49.4919 237.487 49.4919C236.406 49.4919 235.558 49.9516 235.558 50.7177C235.558 51.4839 236.484 51.7137 237.564 51.8669C239.261 52.0968 240.882 52.5564 240.882 54.3951C240.882 56.2339 239.184 56.9234 237.41 56.9234C235.789 56.9234 234.632 56.4637 233.86 55.0847L234.863 54.3951C235.481 55.3911 236.484 55.7742 237.487 55.7742C238.49 55.7742 239.57 55.4677 239.57 54.3951C239.57 53.4758 238.644 53.1693 237.41 53.0161C235.789 52.7863 234.169 52.4032 234.169 50.6411C234.169 48.9556 235.866 48.2661 237.41 48.2661C238.644 48.2661 239.801 48.5726 240.496 49.6451L239.57 50.4113Z" fill="white"/>
<path d="M73.8383 24.0564C72.0637 23.9798 70.2119 23.6733 68.4373 23.1371C64.9653 22.1411 61.7247 20.2258 58.9471 17.5443C53.3919 12.0282 46.062 9.04028 38.2692 9.04028C21.2177 9.04028 7.4839 23.5967 9.10418 40.9113C9.64428 46.8871 12.1133 52.4798 15.9711 57C21.6035 63.5121 29.6277 67.1895 38.1921 67.1895C49.1483 67.1895 58.7156 61.1371 63.7308 52.25C64.4252 51.0242 63.7308 49.4919 62.4191 49.1854C62.342 49.1854 62.2648 49.1088 62.1877 49.1088C61.2618 48.879 60.2588 49.2621 59.7958 50.1048C58.7156 52.0967 57.3268 53.8588 55.7066 55.4677C51 60.1411 44.4417 62.8992 37.2662 62.6693C31.248 62.4395 25.3842 59.9879 21.0634 55.8508C16.1254 51.1008 13.4249 44.6653 13.5021 37.8467C13.6564 24.2863 24.6126 13.5604 38.2692 13.5604C44.9047 13.5604 51.0772 16.0887 55.7837 20.7621C58.5613 23.5201 61.8019 25.5887 65.2739 26.8911C66.9714 27.504 68.746 28.0403 70.5206 28.3467C72.1408 28.5766 73.684 28.7298 75.3042 28.7298C81.3996 28.6532 87.4949 26.5846 92.4329 22.4475C93.3588 21.6814 93.436 20.2258 92.5872 19.3064L92.4329 19.1532C91.6614 18.3871 90.4269 18.3104 89.5781 19C85.1031 22.5242 79.3935 24.2862 73.8383 24.0564Z" fill="#459ED7"/>
<path d="M71.6006 32.8671C69.9804 32.7138 68.4372 32.4074 66.8941 32.0243C65.1195 31.5646 63.4221 30.9517 61.7246 30.1856C58.7155 28.8066 55.7836 26.8912 53.2375 24.5162C53.006 24.363 52.8517 24.1332 52.6202 23.9033C48.7624 20.0727 43.6701 18.0042 38.2691 18.0042C27.0815 18.0042 17.9771 27.0445 17.9771 38.1533C17.9771 43.5162 20.0603 48.5727 23.9181 52.4033C25.847 54.3187 28.0845 55.7743 30.4764 56.7703C32.8682 57.7662 35.5687 58.3025 38.2691 58.3025C43.6701 58.3025 48.7624 56.234 52.6202 52.4033C53.5461 51.484 54.3948 50.488 55.0892 49.4154C55.8608 48.3429 55.3978 46.8106 54.2405 46.2743L54.009 45.9679C53.0831 45.5082 51.9258 45.8912 51.3085 46.734C50.7685 47.5767 50.0741 48.3429 49.3796 49.0324C47.9137 50.488 46.1391 51.6372 44.2873 52.4033C42.5127 53.1695 40.5067 53.5525 38.5006 53.5525C34.4885 53.6292 30.5535 52.1735 27.6216 49.4921C24.3039 46.5042 22.5293 42.3671 22.5293 37.9235C22.5293 29.3429 29.5505 22.2945 38.2691 22.2945C42.4356 22.2945 46.4477 23.9033 49.3796 26.8912C51.1542 28.6533 53.006 30.109 55.0121 31.4114C55.9379 32.0243 56.941 32.6372 57.944 33.1735C59.5643 34.0162 61.1846 34.7058 62.8048 35.3187C64.348 35.855 65.8911 36.3146 67.4342 36.6211C68.9002 36.9275 70.4433 37.1574 71.9093 37.234C73.4524 37.3872 74.9184 37.3872 76.4615 37.3106C84.4857 37.0042 92.4328 34.0162 98.8368 28.3469C99.7627 27.5808 99.7627 26.1251 98.9139 25.2824L98.7596 25.1292C97.9881 24.363 96.6764 24.2864 95.8277 25.0525C90.1953 29.9558 83.1741 32.5606 76.1529 32.8671C74.6869 33.0969 73.1438 33.0203 71.6006 32.8671Z" fill="#459ED7"/>
<path d="M105.396 31.7942L105.241 31.641C104.393 30.7983 103.158 30.7983 102.309 31.5644C94.9024 38.1531 85.6436 41.6007 76.3849 41.9071C74.8417 41.9838 73.3758 41.9071 71.8327 41.8305C70.3667 41.7539 68.9007 41.5241 67.4347 41.2176C67.3576 41.2176 67.2804 41.2176 67.1261 41.141C67.049 41.141 66.9718 41.0644 66.8175 41.0644C66.5089 40.9878 66.1231 40.9112 65.8145 40.8346C65.3515 40.7579 64.8886 40.6047 64.4257 40.4515C64.1942 40.3749 63.9627 40.2983 63.7313 40.2983C63.4998 40.2217 63.1912 40.145 62.9597 40.0684C61.4937 39.6088 60.0278 39.0725 58.5618 38.4596C57.7902 38.1531 57.0187 37.77 56.3243 37.387C55.5527 37.0039 54.704 36.5442 53.9324 36.0846C51.3863 34.5523 48.9173 32.7136 46.7569 30.5684C46.6026 30.4152 46.4483 30.3386 46.3711 30.1854C44.365 28.1168 41.5103 26.891 38.3468 26.891C32.02 26.8144 27.0049 31.7942 27.0049 37.9999C27.0049 41.0644 28.2394 43.8991 30.3226 45.891C31.3256 46.887 32.5601 47.7297 33.8718 48.266C35.1834 48.8023 36.7266 49.1854 38.2697 49.1854C41.896 49.1854 45.1366 47.4999 47.1427 44.8184C47.9142 43.8225 47.6828 42.4434 46.6797 41.7539C46.6026 41.6773 46.5254 41.6773 46.4483 41.6007C45.5224 40.9878 44.2879 41.141 43.5935 41.9838C42.359 43.5926 40.4301 44.5886 38.2697 44.5886C34.5662 44.5886 31.5571 41.6007 31.5571 37.9233C31.5571 34.2458 34.5662 31.2579 38.2697 31.2579C40.1214 31.2579 41.8189 32.0241 43.0534 33.2499C43.1305 33.3265 43.2077 33.4031 43.2077 33.4797C45.1366 35.395 47.297 37.0805 49.4573 38.6128C50.8462 39.5321 52.235 40.3749 53.6238 41.141C54.3182 41.5241 55.0126 41.8305 55.707 42.2136C56.4014 42.52 57.0958 42.8265 57.7902 43.1329C59.179 43.6692 60.5678 44.2055 62.0338 44.5886C63.4998 45.0483 64.9657 45.3547 66.4317 45.6612C67.8977 45.9676 69.3637 46.1208 70.9068 46.2741C72.4499 46.4273 73.993 46.5039 75.5362 46.4273C86.1837 46.2741 96.8313 42.4434 105.241 34.8588C106.244 34.016 106.244 32.637 105.396 31.7942Z" fill="#459ED7"/>
<path d="M71.4469 50.4879C71.3697 50.4879 71.2154 50.4879 71.1382 50.4879C70.2124 50.4113 69.4408 50.9476 69.055 51.7137C63.7313 63.3589 51.9263 71.4798 38.2697 71.4798C19.1349 71.4798 3.62654 55.5444 4.55241 36.3911C5.40113 19.4597 19.0578 5.66935 36.0322 4.59677C46.2168 3.90726 55.5527 7.81452 62.111 14.3266L62.1881 14.25C64.8114 16.8548 68.052 18.5403 71.524 19.1532C76.462 20.0726 81.7087 19 85.9522 15.8589C87.0324 15.0927 87.1096 13.5605 86.1837 12.6411L86.1066 12.5645C85.335 11.7984 84.1005 11.7218 83.2518 12.4113C78.0823 16.3185 70.6753 16.0887 65.8145 11.6452C65.6602 11.4919 65.5058 11.3387 65.3515 11.1855C58.4075 4.29032 48.8401 0 38.2697 0C27.3907 0 17.2832 4.44355 9.8762 12.4879C3.93517 19 0.463134 27.4274 0.0773531 36.1613C-0.462741 47.3468 3.93517 57.6129 11.265 64.8911C14.737 68.3387 18.8263 71.0968 23.4557 73.0121C29.0881 75.3871 35.4921 76.4597 42.1275 75.8468C49.9203 75.0806 57.4044 71.9395 63.3455 66.8064C67.7434 63.0524 71.0611 58.5323 73.3758 53.4758C73.8387 52.1734 72.9128 50.6411 71.4469 50.4879Z" fill="#459ED7"/>
</g>
<defs>
<clipPath id="clip0_147_51">
<rect width="280" height="76" fill="white"/>
</clipPath>
</defs>
</svg>
