<svg width="239" height="245" viewBox="0 0 239 245" fill="none" xmlns="http://www.w3.org/2000/svg">
<g clip-path="url(#clip0_159_148)">
<path d="M205.412 98.9331H0V244.996H205.412V98.9331Z" fill="#102048"/>
<path d="M225.413 47.294H187.412V12.6537C187.435 9.32274 188.771 6.13501 191.133 3.78217C193.494 1.42932 196.689 0.101155 200.024 0.0858275C203.36 0.0705003 206.567 1.36925 208.949 3.7003C211.332 6.03134 212.698 9.20665 212.752 12.5373V12.6537V34.6401C212.752 34.747 212.752 34.8616 212.752 34.9685V35.6347L212.792 35.6156C213.034 38.7927 214.469 41.7612 216.809 43.9268C219.149 46.0923 222.222 47.295 225.413 47.294Z" fill="#E2F4FF"/>
<path d="M238.074 26.9954V34.6499C238.077 37.9208 236.809 41.0653 234.539 43.4227C232.269 45.7802 229.172 47.1671 225.899 47.2922C222.626 47.4172 219.432 46.2706 216.988 44.0933C214.544 41.9159 213.04 38.8773 212.792 35.6158L238.074 26.9954Z" fill="#D3DFFF"/>
<path d="M200.083 9.23763e-08C199.811 9.23763e-08 199.551 0.00954446 199.289 0.0286332C199.116 0.0381775 198.951 0.0477219 198.787 0.0668106C198.622 0.0858994 198.429 0.106897 198.246 0.13553C198.139 0.145074 198.034 0.164163 197.927 0.183252C197.791 0.202341 197.655 0.230974 197.531 0.259607C197.34 0.299693 197.149 0.337871 196.958 0.385592C196.688 0.454312 196.417 0.530667 196.147 0.628019C196.011 0.666197 195.876 0.713919 195.75 0.76164C195.623 0.809362 195.49 0.858993 195.367 0.906715C195.185 0.976325 195.007 1.05598 194.834 1.14532C194.675 1.21052 194.52 1.28445 194.369 1.36675C194.331 1.38584 194.283 1.40493 194.236 1.43356C194.1 1.50228 193.964 1.57864 193.829 1.6569C193.297 1.95335 192.789 2.29165 192.311 2.6686C192.177 2.7755 192.032 2.89194 191.906 2.99693C191.751 3.12292 191.615 3.2489 191.47 3.3787C191.325 3.50851 191.191 3.64786 191.055 3.78339C190.677 4.16957 190.323 4.57886 189.996 5.00888C189.851 5.19977 189.715 5.39066 189.579 5.58154C189.155 6.2284 188.783 6.90823 188.467 7.61449C188.391 7.7882 188.322 7.97145 188.245 8.15661C188.039 8.71103 187.868 9.27781 187.733 9.8536L187.616 10.4434C187.549 10.8386 187.49 11.2452 187.462 11.6498V189.144H18.0669V19.7282C18.0666 17.1374 18.5774 14.5719 19.5701 12.1782C20.5628 9.7846 22.0179 7.60968 23.8523 5.7777C25.6868 3.94571 27.8646 2.49256 30.2615 1.50121C32.6583 0.509863 35.2272 -0.000250628 37.8215 9.23763e-08L200.083 9.23763e-08Z" fill="#D3DFFF"/>
<path d="M166.633 18.0867H38.093V24.8422H166.633V18.0867Z" fill="#ADC3FF"/>
<path d="M156.672 37.874H38.093V44.6295H156.672V37.874Z" fill="#ADC3FF"/>
<path d="M150.422 57.6594H38.093V64.4149H150.422V57.6594Z" fill="#ADC3FF"/>
<path d="M166.633 77.4448H38.093V84.2003H166.633V77.4448Z" fill="#ADC3FF"/>
<path d="M157.452 97.4729H87.7651V104.228H157.452V97.4729Z" fill="#ADC3FF"/>
<path d="M101.789 135.41C101.411 135.427 101.034 135.352 100.691 135.19C100.349 135.028 100.052 134.784 99.8262 134.48C99.2299 133.655 99.2719 132.527 99.3006 131.781L99.9562 114.32L100.912 114.357L100.256 131.815C100.226 132.628 100.23 133.401 100.6 133.915C101.422 135.047 103.397 134.068 103.785 133.86C105.733 132.817 107.13 130.855 108.479 128.958C109.984 126.858 111.538 124.668 113.887 123.643C115.28 123.034 116.305 123.928 117.136 124.642C117.604 125.046 118.046 125.428 118.512 125.567C119.741 125.928 120.965 125.611 122.261 125.273C123.408 124.974 124.591 124.663 125.806 124.852C126.921 125.021 127.819 125.464 128.689 125.892C129.973 126.526 131.084 127.073 132.689 126.684C134.903 126.151 136.96 124.894 138.947 123.678C139.521 123.324 140.094 122.971 140.679 122.635C142.914 121.337 146.274 119.703 149.615 120.469L149.405 121.404C146.389 120.715 143.262 122.248 141.169 123.464C140.595 123.798 140.022 124.145 139.448 124.495C137.395 125.751 135.274 127.049 132.911 127.618C130.973 128.085 129.595 127.413 128.257 126.749C127.454 126.352 126.623 125.943 125.657 125.795C124.637 125.642 123.599 125.911 122.5 126.197C121.135 126.552 119.726 126.923 118.235 126.482C117.566 126.291 117.023 125.816 116.5 125.361C115.636 124.615 115.07 124.176 114.275 124.518C112.172 125.436 110.762 127.413 109.269 129.507C107.854 131.494 106.39 133.55 104.244 134.699C103.494 135.128 102.652 135.371 101.789 135.41Z" fill="#102048"/>
<path opacity="0.3" d="M187.46 105.049V189.145H18.0669V97.7344L70.981 141.688C73.8997 144.12 77.7264 145.046 81.4938 144.515C82.5985 144.359 83.7141 144.296 84.8293 144.324L120.898 145.338C122.14 145.377 123.375 145.529 124.589 145.792C128.33 146.602 132.235 145.859 135.327 143.582L187.46 105.049Z" fill="#E2F4FF"/>
<path d="M77.2352 159.486L75.8226 161.05L12.0746 231.642L0.00390625 245V98.9312L77.2352 159.486Z" fill="#459ED7"/>
<path d="M205.412 98.9331L128.178 159.486L205.412 244.996V98.9331Z" fill="#459ED7"/>
<path d="M75.8226 161.05L12.0745 231.642L0 234.297V208.336C31.8654 185.529 67.6149 159.087 75.7805 158.515L75.8226 161.05Z" fill="#150E3B"/>
<path d="M129.595 161.05L193.341 231.642L205.412 234.297V208.336C173.558 185.542 137.799 159.089 129.631 158.52L129.595 161.05Z" fill="#150E3B"/>
<path d="M205.412 244.996H0L0.0382286 225.782L70.8184 161.655C74.5348 158.289 79.3726 156.425 84.3896 156.427H120.468C125.407 156.427 130.175 158.235 133.869 161.51L205.612 225.117L205.412 244.996Z" fill="#459ED7"/>
<path opacity="0.4" d="M216.705 234.677C230.481 220.92 230.481 198.614 216.705 184.857C202.929 171.099 180.594 171.099 166.818 184.857C153.042 198.614 153.042 220.92 166.818 234.677C180.594 248.435 202.929 248.435 216.705 234.677Z" fill="#150E3B"/>
<path d="M227.336 234.677C241.112 220.92 241.112 198.615 227.336 184.857C213.56 171.1 191.225 171.1 177.449 184.857C163.673 198.615 163.673 220.92 177.449 234.677C191.225 248.435 213.56 248.435 227.336 234.677Z" fill="#1CAE21"/>
<path d="M201.637 228.857C200.802 228.857 199.977 228.682 199.214 228.343C198.451 228.005 197.769 227.51 197.21 226.891L184.73 213.13C184.214 212.56 183.945 211.809 183.983 211.042C184.021 210.275 184.363 209.554 184.933 209.039C185.503 208.523 186.255 208.255 187.023 208.293C187.791 208.331 188.513 208.672 189.029 209.241L201.507 223.004C201.527 223.028 201.553 223.046 201.583 223.056C201.613 223.066 201.644 223.068 201.675 223.061C201.706 223.059 201.736 223.047 201.761 223.028C201.786 223.008 201.804 222.982 201.814 222.953L215.25 192.411C215.559 191.707 216.135 191.156 216.852 190.877C217.569 190.598 218.367 190.615 219.071 190.924C219.775 191.232 220.327 191.808 220.607 192.524C220.886 193.239 220.869 194.036 220.56 194.739L207.124 225.281C206.654 226.344 205.885 227.247 204.911 227.881C203.937 228.516 202.8 228.855 201.637 228.857Z" fill="white"/>
</g>
<defs>
<clipPath id="clip0_159_148">
<rect width="238.074" height="245" fill="white"/>
</clipPath>
</defs>
</svg>
