<svg width="50" height="50" viewBox="0 0 50 50" fill="none" xmlns="http://www.w3.org/2000/svg">
<rect width="50" height="50" rx="11.0294" fill="#CCDFFF"/>
<g clip-path="url(#clip0_84_29)">
<path d="M36.3242 21.6032V28.3973C39.0742 29.0443 41.1772 31.6326 41.1772 34.7061C41.1772 38.2649 38.2654 41.1767 34.7066 41.1767C31.1477 41.1767 28.236 38.2649 28.236 34.7061C28.236 34.2208 28.236 33.5738 28.3977 33.0885L23.0595 30.1767C21.6036 31.9561 19.3389 33.0885 16.9125 33.0885C12.383 33.0885 8.82422 29.5296 8.82422 25.0002C8.82422 20.4708 12.383 16.912 16.9125 16.912C19.3389 16.912 21.6036 18.0443 23.0595 19.8238L28.3977 16.912C28.236 16.4267 28.236 15.7796 28.236 15.2943C28.236 11.7355 31.1477 8.82376 34.7066 8.82376C38.2654 8.82376 41.1772 11.7355 41.1772 15.2943C41.1772 18.3679 39.0742 20.7943 36.3242 21.6032ZM34.7066 37.9414C36.486 37.9414 37.9419 36.4855 37.9419 34.7061C37.9419 32.9267 36.486 31.4708 34.7066 31.4708C32.9272 31.4708 31.4713 32.9267 31.4713 34.7061C31.4713 36.4855 32.9272 37.9414 34.7066 37.9414ZM16.9125 20.1473C14.1625 20.1473 12.0595 22.2502 12.0595 25.0002C12.0595 27.7502 14.1625 29.8532 16.9125 29.8532C19.5007 29.8532 21.7654 27.7502 21.7654 25.0002C21.7654 22.2502 19.5007 20.1473 16.9125 20.1473ZM25.0007 25.0002C25.0007 25.8091 24.8389 26.7796 24.6772 27.4267L30.0154 30.3385C30.8242 29.3679 32.1183 28.7208 33.0889 28.5591V21.6032C31.9566 21.2796 30.8242 20.6326 30.0154 19.8238L24.6772 22.7355C24.8389 23.2208 25.0007 24.1914 25.0007 25.0002ZM34.7066 12.0591C32.9272 12.0591 31.4713 13.5149 31.4713 15.2943C31.4713 17.0738 32.9272 18.5296 34.7066 18.5296C36.486 18.5296 37.9419 17.0738 37.9419 15.2943C37.9419 13.5149 36.486 12.0591 34.7066 12.0591Z" fill="#0055E3"/>
</g>
<defs>
<clipPath id="clip0_84_29">
<rect width="32.3529" height="32.3529" fill="white" transform="matrix(1 0 0 -1 8.82373 41.1765)"/>
</clipPath>
</defs>
</svg>
