<svg width="371" height="370" viewBox="0 0 371 370" fill="none" xmlns="http://www.w3.org/2000/svg">
<rect width="369.457" height="369.457" transform="translate(0.740234)" fill="white"/>
<path d="M13.6709 236.643L26.8742 244.275L40.0775 251.907L53.2808 259.538L66.4841 267.17L79.6874 274.802L92.8906 282.434L106.094 290.066L119.297 297.698L132.501 305.33L145.704 312.962L158.907 320.594L172.11 328.226L185.314 335.858M26.9124 228.972L40.1156 236.604L53.3189 244.236L66.5222 251.868L79.7255 259.5L92.9288 267.132L106.132 274.764L119.335 282.396L132.539 290.028L145.742 297.66L158.945 305.292L172.149 312.924L185.352 320.556L198.555 328.188M40.192 221.302L53.3953 228.934L66.5985 236.566L79.8018 244.198L93.0051 251.83L106.208 259.462L119.412 267.094L132.615 274.726L145.818 282.358L159.022 289.99L172.225 297.622L185.428 305.254L198.631 312.886L211.835 320.518M53.5097 213.632L66.713 221.264L79.9163 228.896L93.1196 236.528L106.323 244.16L119.526 251.792L132.729 259.424L145.933 267.056L159.136 274.688L172.339 282.32L185.543 289.952L198.746 297.584L211.949 305.216L225.153 312.848M66.7512 205.962L79.9545 213.594L93.1578 221.226L106.361 228.858L119.564 236.49L132.768 244.122L145.971 251.754L159.174 259.386L172.378 267.018L185.581 274.65L198.784 282.282L211.987 289.914L225.191 297.546L238.394 305.178M80.0308 198.292L93.2341 205.924L106.437 213.556L119.641 221.188L132.844 228.82L146.047 236.452L159.251 244.084L172.454 251.716L185.657 259.348L198.86 266.98L212.064 274.612L225.267 282.244L238.47 289.876L251.674 297.507M93.3104 190.622L106.514 198.254L119.717 205.886L132.92 213.518L146.124 221.15L159.327 228.782L172.53 236.414L185.733 244.046L198.937 251.678L212.14 259.31L225.343 266.941L238.547 274.573L251.75 282.205L264.953 289.837M106.59 182.952L119.793 190.584L132.997 198.216L146.2 205.848L159.403 213.48L172.606 221.112L185.81 228.743L199.013 236.375L212.216 244.007L225.42 251.639L238.623 259.271L251.826 266.903L265.03 274.535L278.233 282.167M119.87 175.282L133.073 182.914L146.276 190.546L159.48 198.178L172.683 205.809L185.886 213.441L199.089 221.073L212.293 228.705L225.496 236.337L238.699 243.969L251.903 251.601L265.106 259.233L278.309 266.865L291.512 274.497M133.149 167.612L146.353 175.243L159.556 182.875L172.759 190.507L185.962 198.139L199.166 205.771L212.369 213.403L225.572 221.035L238.776 228.667L251.979 236.299L265.182 243.931L278.385 251.563L291.589 259.195L304.792 266.827M146.429 159.941L159.632 167.573L172.835 175.205L186.039 182.837L199.242 190.469L212.445 198.101L225.649 205.733L238.852 213.365L252.055 220.997L265.258 228.629L278.462 236.261L291.665 243.893L304.868 251.525L318.072 259.157M159.708 152.309L172.912 159.941L186.115 167.573L199.318 175.205L212.522 182.837L225.725 190.469L238.928 198.101L252.132 205.733L265.335 213.365L278.538 220.997L291.741 228.629L304.945 236.261L318.148 243.893L331.351 251.525M172.988 144.639L186.191 152.271L199.395 159.903L212.598 167.535L225.801 175.167L239.005 182.799L252.208 190.431L265.411 198.063L278.614 205.695L291.818 213.327L305.021 220.959L318.224 228.591L331.428 236.223L344.631 243.855M186.268 136.969L199.471 144.601L212.674 152.233L225.878 159.865L239.081 167.497L252.284 175.129L265.487 182.761L278.691 190.393L291.894 198.025L305.097 205.657L318.301 213.289L331.504 220.921L344.707 228.553L357.91 236.185M185.199 335.667L198.479 327.997L211.758 320.327L225.038 312.657L238.318 304.987L251.597 297.317L264.877 289.647L278.157 281.976L291.436 274.306L304.716 266.636L317.995 258.966L331.275 251.296L344.555 243.626L357.834 235.956M171.996 328.073L185.276 320.403L198.555 312.733L211.835 305.063L225.114 297.393L238.394 289.723L251.674 282.053L264.953 274.383L278.233 266.712L291.512 259.042L304.792 251.372L318.072 243.702L331.351 236.032L344.631 228.362M158.831 320.441L172.11 312.771L185.39 305.101L198.67 297.431L211.949 289.761L225.229 282.091L238.508 274.421L251.788 266.751L265.068 259.081L278.347 251.41L291.627 243.74L304.907 236.07L318.186 228.4L331.466 220.73M145.628 312.81L158.907 305.139L172.187 297.469L185.466 289.799L198.746 282.129L212.026 274.459L225.305 266.789L238.585 259.119L251.864 251.449L265.144 243.778L278.424 236.108L291.703 228.438L304.983 220.768L318.262 213.098M132.424 305.216L145.704 297.546L158.983 289.876L172.263 282.205L185.543 274.535L198.822 266.865L212.102 259.195L225.381 251.525L238.661 243.855L251.941 236.185L265.22 228.515L278.5 220.844L291.78 213.174L305.059 205.504M119.221 297.584L132.501 289.914L145.78 282.244L159.06 274.573L172.339 266.903L185.619 259.233L198.899 251.563L212.178 243.893L225.458 236.223L238.737 228.553L252.017 220.883L265.297 213.212L278.576 205.542L291.856 197.872M106.018 289.952L119.297 282.282L132.577 274.612L145.856 266.941L159.136 259.271L172.416 251.601L185.695 243.931L198.975 236.261L212.255 228.591L225.534 220.921L238.814 213.251L252.093 205.581L265.373 197.91L278.653 190.24M92.8143 282.358L106.094 274.688L119.374 267.018L132.653 259.348L145.933 251.678L159.212 244.007L172.492 236.337L185.772 228.667L199.051 220.997L212.331 213.327L225.61 205.657L238.89 197.987L252.17 190.317L265.449 182.646M79.6492 274.726L92.9288 267.056L106.208 259.386L119.488 251.716L132.768 244.046L146.047 236.375L159.327 228.705L172.606 221.035L185.886 213.365L199.166 205.695L212.445 198.025L225.725 190.355L239.005 182.685L252.284 175.015M66.4459 267.094L79.7255 259.424L93.0051 251.754L106.285 244.084L119.564 236.414L132.844 228.743L146.124 221.073L159.403 213.403L172.683 205.733L185.962 198.063L199.242 190.393L212.522 182.723L225.801 175.053L239.081 167.383M53.2426 259.5L66.5222 251.83L79.8018 244.16L93.0814 236.49L106.361 228.82L119.641 221.15L132.92 213.48L146.2 205.809L159.48 198.139L172.759 190.469L186.039 182.799L199.318 175.129L212.598 167.459L225.878 159.789M40.0393 251.868L53.3189 244.198L66.5985 236.528L79.8782 228.858L93.1578 221.188L106.437 213.518L119.717 205.848L132.997 198.178L146.276 190.507L159.556 182.837L172.835 175.167L186.115 167.497L199.395 159.827L212.674 152.157M26.836 244.236L40.1156 236.566L53.3953 228.896L66.6749 221.226L79.9545 213.556L93.2341 205.886L106.514 198.216L119.793 190.546L133.073 182.875L146.353 175.205L159.632 167.535L172.912 159.865L186.191 152.195L199.471 144.525M13.6709 236.643L26.9124 228.972L40.192 221.302L53.4716 213.632L66.7512 205.962L80.0308 198.292L93.3104 190.622L106.59 182.952L119.87 175.282L133.149 167.612L146.429 159.941L159.708 152.271L172.988 144.601L186.268 136.931" stroke="url(#paint0_linear_320_471)" stroke-width="0.532806" stroke-miterlimit="10"/>
<path d="M88.6539 239.085V117.889C88.6539 113.844 87.0512 109.952 84.1892 107.09L75.1454 98.0462C72.2834 95.1842 70.6807 91.2919 70.6807 87.2469V41.7223" stroke="#009CF2" stroke-width="0.532806" stroke-miterlimit="10"/>
<path d="M70.681 41.7223C73.0204 41.7223 74.9168 39.8259 74.9168 37.4866C74.9168 35.1473 73.0204 33.2509 70.681 33.2509C68.3417 33.2509 66.4453 35.1473 66.4453 37.4866C66.4453 39.8259 68.3417 41.7223 70.681 41.7223Z" stroke="#009CF2" stroke-width="0.532806" stroke-miterlimit="10"/>
<path d="M291.437 213.137V121.21C291.437 117.165 293.039 113.273 295.901 110.411L307.006 99.3062C309.868 96.4442 311.47 92.5519 311.47 88.507V65.0387" stroke="#009CF2" stroke-width="0.532806" stroke-miterlimit="10"/>
<path d="M311.508 65.0003C313.848 65.0003 315.744 63.1039 315.744 60.7645C315.744 58.4252 313.848 56.5288 311.508 56.5288C309.169 56.5288 307.272 58.4252 307.272 60.7645C307.272 63.1039 309.169 65.0003 311.508 65.0003Z" stroke="#009CF2" stroke-width="0.532806" stroke-miterlimit="10"/>
<path d="M171.422 241.947V257.326L158.028 249.579V234.201L171.422 241.947Z" fill="white" stroke="#009CF2" stroke-width="0.532806" stroke-miterlimit="10"/>
<g opacity="0.2">
<path opacity="0.5" d="M213.934 183.295L199.891 191.423L195.541 193.942L159.938 214.51L164.288 216.99L173.217 222.142L182.146 227.293L237.326 259.157L237.44 259.233L278.118 235.727L291.436 228.057L213.934 183.295ZM264.724 227.98L255.719 233.17L233.014 246.297L191.152 222.142L182.223 216.952L177.873 214.434L213.895 193.636L269.036 225.5L264.724 227.98Z" fill="#A8A8A8"/>
<path opacity="0.5" d="M228.436 264.423L224.124 266.904L215.156 272.093L171.425 297.355L158.031 289.609L166.617 284.648L170.929 282.129L111.171 247.671L102.242 242.481L88.9238 234.811L190.925 175.931L199.893 181.082L106.897 234.773L111.247 237.292L120.177 242.443L179.935 276.94L210.73 259.157L215.042 256.677L228.436 264.423Z" fill="#A8A8A8"/>
</g>
<path d="M237.44 203.826V219.204L228.434 214.014V209.054L215.04 201.307L210.728 203.788L159.938 174.443V159.102L164.288 161.621L173.217 166.773L182.185 171.924L237.326 203.788L237.44 203.826Z" fill="white" stroke="#009CF2" stroke-width="0.532806" stroke-miterlimit="10"/>
<path d="M213.859 138.267V153.646L191.192 166.734L182.224 161.583L177.874 159.064L213.859 138.267Z" fill="white" stroke="#009CF2" stroke-width="0.532806" stroke-miterlimit="10"/>
<path d="M269.037 170.131L264.725 172.611L255.72 177.801L213.858 153.646V138.267L269.037 170.131Z" fill="white" stroke="#009CF2" stroke-width="0.532806" stroke-miterlimit="10"/>
<path d="M213.934 127.925L199.891 136.015L195.541 138.534L159.938 159.102L164.288 161.621L173.217 166.772L182.146 171.924L237.326 203.787L237.44 203.863L278.157 180.357L291.474 172.687L213.934 127.925ZM264.724 172.611L255.719 177.8L233.014 190.927L191.152 166.772L182.223 161.582L177.873 159.064L213.895 138.267L269.036 170.13L264.724 172.611Z" fill="#3FA8F4" stroke="#009CF2" stroke-width="0.532806" stroke-miterlimit="10" stroke-linecap="round" stroke-linejoin="round"/>
<path d="M228.436 209.054L224.124 211.534L215.156 216.724L171.425 241.947L158.031 234.201L166.617 229.24L170.929 226.76L111.171 192.263L102.242 187.112L88.9238 179.403L190.925 120.523L199.893 125.674L106.897 179.403L111.247 181.922L120.177 187.074L179.935 221.57L210.73 203.788L215.042 201.307L228.436 209.054Z" fill="#3FA8F4" stroke="#009CF2" stroke-width="0.532806" stroke-miterlimit="10" stroke-linecap="round" stroke-linejoin="round"/>
<path d="M199.892 125.675V136.016L195.542 138.535L159.939 159.103V164.14L120.176 187.074L111.247 181.922L106.896 179.404L199.892 125.675Z" fill="white" stroke="#009CF2" stroke-width="0.532806" stroke-miterlimit="10"/>
<path d="M228.437 209.053V224.394L171.426 257.326V241.947L215.157 216.724L224.124 211.534L228.437 209.053Z" fill="white" stroke="#009CF2" stroke-width="0.532806" stroke-miterlimit="10"/>
<path d="M291.437 172.649V188.027L237.44 219.204V203.825L278.157 180.357L291.437 172.649Z" fill="white" stroke="#009CF2" stroke-width="0.532806" stroke-miterlimit="10"/>
<path d="M170.929 226.76L166.617 229.24L158.031 234.201V234.659L88.9238 194.782V179.404L102.242 187.112L111.171 192.263L170.929 226.76Z" fill="white" stroke="#009CF2" stroke-width="0.532806" stroke-miterlimit="10"/>
<path opacity="0.5" d="M213.934 84.9572L199.891 93.047L195.541 95.5656L159.938 116.134L164.288 118.652L173.217 123.804L182.146 128.955L237.326 160.819L237.44 160.895L278.118 137.389L291.436 129.719L213.934 84.9572ZM264.724 129.642L255.719 134.832L233.014 147.921L191.152 123.766L182.223 118.614L177.873 116.096L213.895 95.2985L269.036 127.162L264.724 129.642Z" stroke="#009CF2" stroke-width="0.532806" stroke-miterlimit="10"/>
<path opacity="0.5" d="M228.436 166.085L224.124 168.566L215.156 173.755L171.425 198.979L158.031 191.233L166.617 186.272L170.929 183.791L111.171 149.295L102.242 144.143L88.9238 136.435L190.925 77.5546L199.893 82.7061L106.897 136.435L111.247 138.954L120.177 144.105L179.935 178.602L210.73 160.819L215.042 158.339L228.436 166.085Z" stroke="#009CF2" stroke-width="0.532806" stroke-miterlimit="10"/>
<defs>
<linearGradient id="paint0_linear_320_471" x1="13.5564" y1="236.306" x2="357.937" y2="236.306" gradientUnits="userSpaceOnUse">
<stop stop-color="white"/>
<stop offset="1" stop-color="#3FA8F4"/>
</linearGradient>
</defs>
</svg>
