<svg width="371" height="370" viewBox="0 0 371 370" fill="none" xmlns="http://www.w3.org/2000/svg">
<rect width="369.457" height="369.457" transform="translate(0.654297)" fill="white"/>
<g clip-path="url(#clip0_320_503)">
<path d="M156.86 45.8075C159.104 45.8075 160.924 43.9877 160.924 41.7429C160.924 39.498 159.104 37.6782 156.86 37.6782C154.615 37.6782 152.795 39.498 152.795 41.7429C152.795 43.9877 154.615 45.8075 156.86 45.8075Z" stroke="#009CF2" stroke-width="0.511286" stroke-miterlimit="10"/>
<path d="M156.713 166.392V45.8441" stroke="#009CF2" stroke-width="0.511286" stroke-miterlimit="10"/>
<path opacity="0.2" d="M262.248 256.95L255.181 261.051L201.425 292.104L118.63 279.434L103.763 247.063L96.6592 231.61L157.519 196.493L240.314 209.163L262.248 256.95Z" fill="#A8A8A8"/>
<path d="M20.7852 235.528L33.4552 242.851L46.1252 250.175L58.7952 257.499L71.4652 264.823L84.1352 272.146L96.8053 279.47L109.475 286.794L122.145 294.117L134.815 301.441L147.485 308.765L160.155 316.089L172.825 323.412L185.495 330.736M33.4918 228.167L46.1618 235.491L58.8318 242.815L71.5018 250.139L84.1719 257.462L96.8419 264.786L109.512 272.11L122.182 279.433L134.852 286.757L147.522 294.081L160.192 301.405L172.862 308.728L185.532 316.052L198.202 323.376M46.235 220.807L58.9051 228.131L71.5751 235.455L84.2451 242.778L96.9151 250.102L109.585 257.426L122.255 264.749L134.925 272.073L147.595 279.397L160.265 286.721L172.935 294.044L185.605 301.368L198.275 308.692L210.945 316.015M59.0149 213.447L71.6849 220.771L84.355 228.094L97.025 235.418L109.695 242.742L122.365 250.065L135.035 257.389L147.705 264.713L160.375 272.036L173.045 279.36L185.715 286.684L198.385 294.008L211.055 301.331L223.725 308.655M71.7216 206.086L84.3916 213.41L97.0616 220.734L109.732 228.058L122.402 235.381L135.072 242.705L147.742 250.029L160.412 257.352L173.082 264.676L185.752 272L198.422 279.324L211.092 286.647L223.762 293.971L236.432 301.295M84.4648 198.726L97.1348 206.05L109.805 213.374L122.475 220.697L135.145 228.021L147.815 235.345L160.485 242.668L173.155 249.992L185.825 257.316L198.495 264.64L211.165 271.963L223.835 279.287L236.505 286.611L249.175 293.934M97.2081 191.366L109.878 198.69L122.548 206.013L135.218 213.337L147.888 220.661L160.558 227.984L173.228 235.308L185.898 242.632L198.568 249.955L211.238 257.279L223.908 264.603L236.578 271.927L249.248 279.25L261.918 286.574M109.951 184.005L122.621 191.329L135.291 198.653L147.961 205.977L160.631 213.3L173.301 220.624L185.971 227.948L198.641 235.271L211.311 242.595L223.981 249.919L236.652 257.243L249.322 264.566L261.992 271.89L274.662 279.214M122.695 176.645L135.365 183.969L148.035 191.293L160.705 198.616L173.375 205.94L186.045 213.264L198.715 220.587L211.385 227.911L224.055 235.235L236.725 242.559L249.395 249.882L262.065 257.206L274.735 264.53L287.405 271.853M135.438 169.285L148.108 176.609L160.778 183.932L173.448 191.256L186.118 198.58L198.788 205.903L211.458 213.227L224.128 220.551L236.798 227.875L249.468 235.198L262.138 242.522L274.808 249.846L287.478 257.169L300.148 264.493M148.181 161.924L160.851 169.248L173.521 176.572L186.191 183.896L198.861 191.219L211.531 198.543L224.201 205.867L236.871 213.19L249.541 220.514L262.211 227.838L274.881 235.162L287.551 242.485L300.221 249.809L312.891 257.133M160.924 154.564L173.594 161.888L186.264 169.212L198.934 176.535L211.604 183.859L224.274 191.183L236.944 198.506L249.614 205.83L262.284 213.154L274.955 220.478L287.625 227.801L300.295 235.125L312.965 242.449L325.635 249.772M173.668 147.24L186.338 154.564L199.008 161.888L211.678 169.212L224.348 176.535L237.018 183.859L249.688 191.183L262.358 198.506L275.028 205.83L287.698 213.154L300.368 220.478L313.038 227.801L325.708 235.125L338.378 242.449M186.411 139.88L199.081 147.204L211.751 154.528L224.421 161.851L237.091 169.175L249.761 176.499L262.431 183.822L275.101 191.146L287.771 198.47L300.441 205.794L313.111 213.117L325.781 220.441L338.451 227.765L351.121 235.088M185.386 330.553L198.129 323.193L210.872 315.832L223.615 308.472L236.359 301.148L249.102 293.788L261.845 286.428L274.588 279.067L287.332 271.707L300.075 264.347L312.818 256.986L325.561 249.626L338.305 242.266L351.048 234.905M172.716 323.266L185.459 315.905L198.202 308.545L210.945 301.185L223.689 293.825L236.432 286.464L249.175 279.104L261.918 271.744L274.662 264.383L287.405 257.023L300.148 249.663L312.891 242.302L325.635 234.942L338.378 227.582M160.082 315.942L172.825 308.582L185.569 301.221L198.312 293.861L211.055 286.501L223.798 279.14L236.542 271.78L249.285 264.42L262.028 257.059L274.771 249.699L287.515 242.339L300.258 234.978L313.001 227.618L325.744 220.258M147.412 308.618L160.155 301.258L172.899 293.898L185.642 286.537L198.385 279.177L211.128 271.817L223.872 264.456L236.615 257.096L249.358 249.736L262.101 242.375L274.845 235.015L287.588 227.655L300.331 220.294L313.074 212.934M134.742 301.331L147.485 293.971L160.229 286.611L172.972 279.25L185.715 271.89L198.458 264.53L211.202 257.169L223.945 249.809L236.688 242.449L249.431 235.088L262.175 227.728L274.918 220.368L287.661 213.007L300.404 205.647M122.072 294.008L134.815 286.647L147.559 279.287L160.302 271.927L173.045 264.566L185.788 257.206L198.532 249.846L211.275 242.485L224.018 235.125L236.761 227.765L249.505 220.404L262.248 213.044L274.991 205.684L287.734 198.323M109.402 286.684L122.145 279.324L134.889 271.963L147.632 264.603L160.375 257.243L173.118 249.882L185.862 242.522L198.605 235.162L211.348 227.801L224.091 220.441L236.835 213.081L249.578 205.72L262.321 198.36L275.064 191M96.732 279.397L109.475 272.036L122.219 264.676L134.962 257.316L147.705 249.955L160.448 242.595L173.192 235.235L185.935 227.875L198.678 220.514L211.421 213.154L224.165 205.794L236.908 198.433L249.651 191.073L262.394 183.713M84.0986 272.073L96.8419 264.713L109.585 257.352L122.328 249.992L135.072 242.632L147.815 235.271L160.558 227.911L173.301 220.551L186.045 213.19L198.788 205.83L211.531 198.47L224.274 191.109L237.018 183.749L249.761 176.389M71.4286 264.749L84.1719 257.389L96.9151 250.029L109.658 242.668L122.402 235.308L135.145 227.948L147.888 220.587L160.631 213.227L173.375 205.867L186.118 198.506L198.861 191.146L211.604 183.786L224.348 176.425L237.091 169.065M58.7586 257.462L71.5018 250.102L84.2451 242.742L96.9884 235.381L109.732 228.021L122.475 220.661L135.218 213.3L147.961 205.94L160.705 198.58L173.448 191.219L186.191 183.859L198.934 176.499L211.678 169.138L224.421 161.778M46.0886 250.139L58.8318 242.778L71.5751 235.418L84.3183 228.058L97.0616 220.697L109.805 213.337L122.548 205.977L135.291 198.616L148.035 191.256L160.778 183.896L173.521 176.535L186.264 169.175L199.008 161.815L211.751 154.454M33.4186 242.815L46.1618 235.455L58.9051 228.094L71.6483 220.734L84.3916 213.374L97.1348 206.013L109.878 198.653L122.621 191.293L135.365 183.932L148.108 176.572L160.851 169.212L173.594 161.851L186.338 154.491L199.081 147.131M20.7852 235.528L33.4918 228.167L46.235 220.807L58.9783 213.447L71.7216 206.086L84.4648 198.726L97.2081 191.366L109.951 184.005L122.695 176.645L135.438 169.285L148.181 161.924L160.924 154.564L173.668 147.204L186.411 139.844" stroke="url(#paint0_linear_320_503)" stroke-width="0.511286" stroke-miterlimit="10"/>
<path d="M96.6585 232.635V116.335C96.6585 112.453 95.1205 108.718 92.3741 105.972L83.6955 97.293C80.9491 94.5466 79.4111 90.8115 79.4111 86.93V43.244" stroke="#009CF2" stroke-width="0.511286" stroke-miterlimit="10"/>
<path d="M79.4113 43.2441C81.6562 43.2441 83.476 41.4243 83.476 39.1794C83.476 36.9346 81.6562 35.1147 79.4113 35.1147C77.1665 35.1147 75.3467 36.9346 75.3467 39.1794C75.3467 41.4243 77.1665 43.2441 79.4113 43.2441Z" stroke="#009CF2" stroke-width="0.511286" stroke-miterlimit="10"/>
<path d="M262.248 197.518L255.181 201.619L201.425 232.635L118.63 219.965L103.763 187.594L96.6592 172.178L157.519 137.061L240.314 149.731L262.248 197.518Z" fill="#3FA8F4" stroke="#009CF2" stroke-width="0.511286" stroke-miterlimit="10" stroke-linecap="round" stroke-linejoin="round"/>
<path d="M201.425 232.635V252.153L118.631 239.483V219.965L201.425 232.635Z" fill="white" stroke="#009CF2" stroke-width="0.511286" stroke-miterlimit="10" stroke-linecap="round" stroke-linejoin="round"/>
<path d="M118.63 219.965V239.483L96.6592 191.695V172.178L103.763 187.594L118.63 219.965Z" fill="white" stroke="#009CF2" stroke-width="0.511286" stroke-miterlimit="10" stroke-linecap="round" stroke-linejoin="round"/>
<path d="M262.248 197.518V217.035L201.425 252.153V232.635L255.181 201.619L262.248 197.518Z" fill="white" stroke="#009CF2" stroke-width="0.511286" stroke-miterlimit="10" stroke-linecap="round" stroke-linejoin="round"/>
<path d="M240.862 163.097L235.626 166.136L195.748 189.169L134.339 179.758L123.317 155.736L118.08 144.311L163.194 118.276L224.603 127.65L240.862 163.097Z" fill="#3FA8F4" stroke="#009CF2" stroke-width="0.511286" stroke-miterlimit="10" stroke-linecap="round" stroke-linejoin="round"/>
<path d="M195.748 189.169V203.634L134.339 194.223V179.758L195.748 189.169Z" fill="white" stroke="#009CF2" stroke-width="0.511286" stroke-miterlimit="10" stroke-linecap="round" stroke-linejoin="round"/>
<path d="M134.339 179.758V194.223L118.08 158.776V144.312L123.317 155.737L134.339 179.758Z" fill="white" stroke="#009CF2" stroke-width="0.511286" stroke-miterlimit="10" stroke-linecap="round" stroke-linejoin="round"/>
<path d="M240.862 163.097V177.561L195.748 203.633V189.169L235.626 166.136L240.862 163.097Z" fill="white" stroke="#009CF2" stroke-width="0.511286" stroke-miterlimit="10" stroke-linecap="round" stroke-linejoin="round"/>
<path opacity="0.5" d="M262.248 134.131L255.181 138.233L201.425 169.285L118.63 156.615L103.763 124.244L96.6592 108.791L157.519 73.6741L240.314 86.3441L262.248 134.131Z" stroke="#009CF2" stroke-width="0.511286" stroke-miterlimit="10"/>
<path opacity="0.5" d="M240.862 127.65L235.626 130.689L195.748 153.722L134.339 144.311L123.317 120.29L118.08 108.865L163.194 82.8289L224.603 92.2032L240.862 127.65Z" stroke="#009CF2" stroke-width="0.511286" stroke-miterlimit="10"/>
<path d="M262.578 242.559V112.6C262.578 109.268 263.896 106.082 266.24 103.738L277.555 92.4233C279.899 90.0798 281.217 86.8939 281.217 83.5617V59.0272" stroke="#009CF2" stroke-width="0.511286" stroke-miterlimit="10"/>
<path d="M281.217 58.9903C283.462 58.9903 285.282 57.1705 285.282 54.9256C285.282 52.6808 283.462 50.861 281.217 50.861C278.972 50.861 277.152 52.6808 277.152 54.9256C277.152 57.1705 278.972 58.9903 281.217 58.9903Z" stroke="#009CF2" stroke-width="0.511286" stroke-miterlimit="10"/>
</g>
<defs>
<linearGradient id="paint0_linear_320_503" x1="20.6753" y1="235.201" x2="351.146" y2="235.201" gradientUnits="userSpaceOnUse">
<stop stop-color="white"/>
<stop offset="1" stop-color="#3FA8F4"/>
</linearGradient>
<clipPath id="clip0_320_503">
<rect width="330.482" height="295.805" fill="white" transform="translate(20.0508 36.9454)"/>
</clipPath>
</defs>
</svg>
