<svg width="371" height="370" viewBox="0 0 371 370" fill="none" xmlns="http://www.w3.org/2000/svg">
<rect width="369.457" height="369.457" transform="translate(0.567383)" fill="white"/>
<path opacity="0.2" d="M289.879 261.63C289.879 263.728 288.605 265.488 286.021 266.949L282.163 269.159L272.987 274.477L233.959 297.025L224.857 291.744L263.885 269.196L276.432 261.967L276.919 261.668L276.32 261.331L248.828 245.45L230.625 234.962C224.745 231.554 217.816 229.044 209.838 227.359C201.86 225.711 193.657 224.887 185.192 224.962C176.728 225.037 168.525 225.936 160.51 227.696C152.494 229.456 145.528 232.041 139.61 235.449C133.692 238.858 129.197 242.903 126.201 247.51C126.051 247.734 125.901 247.997 125.752 248.221C123.017 252.604 121.594 257.136 121.482 261.743C121.407 264.477 121.819 267.174 122.68 269.833C123.355 271.893 124.328 273.953 125.602 275.975C128.486 280.582 132.868 284.59 138.748 287.998L175.904 309.423L172.832 311.183C169.461 313.131 165.379 314.104 160.585 314.104C159.611 314.104 158.674 314.067 157.738 313.992C154.18 313.692 151.034 312.756 148.374 311.22L136.202 304.179C133.879 302.831 132.381 301.332 131.707 299.647C131.445 299.01 131.295 298.336 131.258 297.699V297.737C131.183 296.725 131.37 295.677 131.819 294.628L125.152 290.321L124.216 289.721C117.736 284.927 113.167 279.833 110.47 274.44C109.684 272.829 109.009 271.219 108.522 269.646C107.736 267.136 107.361 264.627 107.361 262.117C107.361 260.919 107.436 259.683 107.624 258.484C108.41 253.24 110.77 248.146 114.665 243.277C118.56 238.408 123.841 234.026 130.471 230.206C137.213 226.31 144.816 223.239 153.281 220.992C161.746 218.744 170.51 217.433 179.649 217.021C188.751 216.609 197.927 217.171 207.178 218.707C216.43 220.205 225.157 222.827 233.397 226.498L241.787 230.805C244.521 230.28 247.367 230.206 250.252 230.58C253.136 230.955 255.682 231.741 257.817 232.977L271.825 241.067C274.073 242.341 275.496 243.839 276.058 245.487C276.657 247.135 276.507 248.746 275.571 250.356L286.058 256.424C288.643 257.847 289.879 259.608 289.879 261.63Z" fill="#A8A8A8"/>
<path d="M185.453 72.1834C187.75 72.1834 189.611 70.322 189.611 68.0259C189.611 65.7298 187.75 63.8684 185.453 63.8684C183.157 63.8684 181.296 65.7298 181.296 68.0259C181.296 70.322 183.157 72.1834 185.453 72.1834Z" stroke="#009CF2" stroke-width="0.522963" stroke-miterlimit="10"/>
<path d="M185.304 195.485V72.1835" stroke="#009CF2" stroke-width="0.522963" stroke-miterlimit="10"/>
<path d="M16.2695 247.136L29.2289 254.627L42.1883 262.118L55.1476 269.609L68.107 277.1L81.0664 284.591L94.0258 292.082L106.985 299.573L119.945 307.064L132.904 314.555L145.863 322.046L158.823 329.537L171.782 337.028L184.741 344.519M29.2664 239.608L42.2257 247.099L55.1851 254.589L68.1445 262.08L81.1038 269.571L94.0632 277.062L107.023 284.553L119.982 292.044L132.941 299.535L145.901 307.026L158.86 314.517L171.819 322.008L184.779 329.499L197.738 336.99M42.3006 232.117L55.26 239.608L68.2194 247.099L81.1788 254.589L94.1381 262.08L107.098 269.571L120.057 277.062L133.016 284.553L145.976 292.044L158.935 299.535L171.894 307.026L184.854 314.517L197.813 322.008L210.772 329.499M55.3724 224.588L68.3318 232.079L81.2911 239.57L94.2505 247.061L107.21 254.552L120.169 262.043L133.129 269.534L146.088 277.025L159.047 284.516L172.007 292.007L184.966 299.498L197.925 306.989L210.885 314.48L223.844 321.971M68.3692 217.06L81.3286 224.551L94.288 232.042L107.247 239.533L120.207 247.024L133.166 254.515L146.125 262.006L159.085 269.496L172.044 276.987L185.004 284.478L197.963 291.969L210.922 299.46L223.882 306.951L236.841 314.442M81.4035 209.531L94.3629 217.022L107.322 224.513L120.282 232.004L133.241 239.495L146.2 246.986L159.16 254.477L172.119 261.968L185.078 269.459L198.038 276.95L210.997 284.441L223.957 291.932L236.916 299.423L249.875 306.914M94.4378 202.003L107.397 209.494L120.357 216.985L133.316 224.476L146.275 231.967L159.235 239.458L172.194 246.949L185.153 254.44L198.113 261.931L211.072 269.422L224.032 276.913L236.991 284.404L249.95 291.894L262.91 299.385M107.472 194.474L120.431 201.965L133.391 209.456L146.35 216.947L159.31 224.438L172.269 231.929L185.228 239.42L198.188 246.911L211.147 254.402L224.106 261.893L237.066 269.384L250.025 276.875L262.985 284.366L275.944 291.857M120.506 186.946L133.466 194.437L146.425 201.928L159.384 209.419L172.344 216.91L185.303 224.401L198.263 231.892L211.222 239.383L224.181 246.874L237.141 254.365L250.1 261.856L263.059 269.347L276.019 276.838L288.978 284.329M133.541 179.418L146.5 186.909L159.459 194.4L172.419 201.891L185.378 209.381L198.337 216.872L211.297 224.363L224.256 231.854L237.216 239.345L250.175 246.836L263.134 254.327L276.094 261.818L289.053 269.309L302.012 276.8M146.575 171.889L159.534 179.38L172.494 186.871L185.453 194.362L198.412 201.853L211.372 209.344L224.331 216.835L237.291 224.326L250.25 231.817L263.209 239.308L276.169 246.799L289.128 254.29L302.087 261.781L315.047 269.272M159.609 164.361L172.569 171.852L185.528 179.343L198.487 186.834L211.447 194.325L224.406 201.816L237.365 209.307L250.325 216.798L263.284 224.289L276.244 231.779L289.203 239.27L302.162 246.761L315.122 254.252L328.081 261.743M172.643 156.832L185.603 164.323L198.562 171.814L211.522 179.305L224.481 186.796L237.44 194.287L250.4 201.778L263.359 209.269L276.318 216.76L289.278 224.251L302.237 231.742L315.197 239.233L328.156 246.724L341.115 254.215M185.678 149.304L198.637 156.795L211.596 164.286L224.556 171.777L237.515 179.268L250.475 186.759L263.434 194.25L276.393 201.741L289.353 209.232L302.312 216.723L315.271 224.214L328.231 231.705L341.19 239.196L354.15 246.687M184.629 344.369L197.663 336.84L210.698 329.312L223.732 321.783L236.766 314.255L249.8 306.727L262.835 299.198L275.869 291.67L288.903 284.141L301.938 276.613L314.972 269.084L328.006 261.556L341.04 254.028L354.075 246.499M171.67 336.878L184.704 329.349L197.738 321.821L210.772 314.292L223.807 306.764L236.841 299.236L249.875 291.745L262.91 284.216L275.944 276.688L288.978 269.159L302.012 261.631L315.047 254.103L328.081 246.574L341.115 239.046M158.748 329.424L171.782 321.896L184.816 314.367L197.851 306.839L210.885 299.311L223.919 291.782L236.953 284.254L249.988 276.725L263.022 269.197L276.056 261.668L289.091 254.14L302.125 246.612L315.159 239.083L328.193 231.555M145.788 321.933L158.823 314.405L171.857 306.876L184.891 299.348L197.925 291.82L210.96 284.291L223.994 276.763L237.028 269.234L250.063 261.706L263.097 254.177L276.131 246.649L289.165 239.121L302.2 231.592L315.234 224.064M132.829 314.442L145.863 306.914L158.898 299.385L171.932 291.857L184.966 284.329L198 276.8L211.035 269.272L224.069 261.743L237.103 254.215L250.138 246.687L263.172 239.158L276.206 231.63L289.24 224.101L302.275 216.573M119.87 306.989L132.904 299.46L145.938 291.932L158.972 284.404L172.007 276.875L185.041 269.347L198.075 261.818L211.11 254.29L224.144 246.761L237.178 239.233L250.212 231.705L263.247 224.176L276.281 216.648L289.315 209.119M106.91 299.498L119.945 291.969L132.979 284.441L146.013 276.913L159.047 269.384L172.082 261.856L185.116 254.327L198.15 246.799L211.184 239.27L224.219 231.742L237.253 224.214L250.287 216.685L263.322 209.157L276.356 201.628M93.9509 292.007L106.985 284.478L120.019 276.95L133.054 269.422L146.088 261.893L159.122 254.365L172.157 246.836L185.191 239.308L198.225 231.779L211.259 224.251L224.294 216.723L237.328 209.194L250.362 201.666L263.397 194.137M81.0289 284.553L94.0632 277.025L107.098 269.496L120.132 261.968L133.166 254.44L146.2 246.911L159.235 239.383L172.269 231.854L185.303 224.326L198.337 216.798L211.372 209.269L224.406 201.741L237.44 194.212L250.475 186.684M68.0696 277.062L81.1038 269.534L94.1381 262.006L107.172 254.477L120.207 246.949L133.241 239.42L146.275 231.892L159.31 224.363L172.344 216.835L185.378 209.307L198.412 201.778L211.447 194.25L224.481 186.721L237.515 179.193M55.1102 269.571L68.1445 262.043L81.1788 254.515L94.213 246.986L107.247 239.458L120.282 231.929L133.316 224.401L146.35 216.872L159.384 209.344L172.419 201.816L185.453 194.287L198.487 186.759L211.522 179.23L224.556 171.702M42.1508 262.118L55.1851 254.589L68.2194 247.061L81.2537 239.533L94.288 232.004L107.322 224.476L120.357 216.947L133.391 209.419L146.425 201.891L159.459 194.362L172.494 186.834L185.528 179.305L198.562 171.777L211.596 164.248M29.1914 254.627L42.2257 247.099L55.26 239.57L68.2943 232.042L81.3286 224.513L94.3629 216.985L107.397 209.456L120.431 201.928L133.466 194.4L146.5 186.871L159.534 179.343L172.569 171.814L185.603 164.286L198.637 156.757M16.2695 247.136L29.2664 239.608L42.3006 232.079L55.3349 224.551L68.3692 217.022L81.4035 209.494L94.4378 201.965L107.472 194.437L120.506 186.909L133.541 179.38L146.575 171.852L159.609 164.323L172.643 156.795L185.678 149.266" stroke="url(#paint0_linear_320_534)" stroke-width="0.522963" stroke-miterlimit="10"/>
<path d="M289.316 254.29V121.362C289.316 117.954 290.665 114.695 293.062 112.298L304.635 100.725C307.033 98.3277 308.381 95.0692 308.381 91.6608V66.566" stroke="#009CF2" stroke-width="0.522963" stroke-miterlimit="10"/>
<path d="M308.418 66.5286C310.714 66.5286 312.576 64.6672 312.576 62.3711C312.576 60.075 310.714 58.2136 308.418 58.2136C306.122 58.2136 304.261 60.075 304.261 62.3711C304.261 64.6672 306.122 66.5286 308.418 66.5286Z" stroke="#009CF2" stroke-width="0.522963" stroke-miterlimit="10"/>
<path d="M289.877 194.325V209.344C289.877 211.404 288.604 213.164 286.019 214.625L233.957 244.701V229.645L272.985 207.097L282.161 201.778L286.019 199.568C288.604 198.145 289.877 196.385 289.877 194.325Z" fill="white" stroke="#009CF2" stroke-width="0.522963" stroke-miterlimit="10"/>
<path d="M276.43 194.624L263.882 201.852L230.66 182.676C224.779 179.267 217.85 176.758 209.872 175.072C201.895 173.424 193.692 172.638 185.227 172.675C176.762 172.75 168.56 173.649 160.544 175.409C152.529 177.17 145.562 179.754 139.645 183.162C133.727 186.571 129.232 190.616 126.236 195.223C124.663 197.62 123.502 200.017 122.715 202.489C121.854 199.83 121.442 197.133 121.516 194.399C121.629 189.755 123.052 185.26 125.786 180.878C125.936 180.653 126.086 180.391 126.236 180.166C129.27 175.559 133.727 171.514 139.645 168.106C145.562 164.697 152.529 162.113 160.544 160.352C168.522 158.592 176.762 157.693 185.227 157.618C193.692 157.543 201.895 158.33 209.872 160.015C217.85 161.663 224.779 164.21 230.66 167.619L248.863 178.106L276.355 193.987C276.355 194.212 276.392 194.399 276.43 194.624Z" fill="white" stroke="#009CF2" stroke-width="0.522963" stroke-miterlimit="10"/>
<path d="M131.293 230.393C131.293 230.393 131.293 230.431 131.293 230.393V242.004L124.252 237.435C117.772 232.641 113.203 227.547 110.506 222.153C108.446 217.996 107.435 213.913 107.435 209.831V194.774C107.435 197.246 107.809 199.755 108.596 202.302C109.083 203.913 109.719 205.486 110.543 207.096C113.203 212.49 117.772 217.546 124.289 222.378L125.226 222.977L131.893 227.285C131.406 228.333 131.218 229.382 131.293 230.393Z" fill="white" stroke="#009CF2" stroke-width="0.522963" stroke-miterlimit="10"/>
<path d="M175.901 242.117V257.174L172.83 258.934C169.459 260.882 165.376 261.856 160.582 261.856C155.788 261.856 151.743 260.919 148.372 258.972L136.199 251.93C133.877 250.582 132.379 249.084 131.704 247.398C131.442 246.761 131.292 246.125 131.255 245.45V230.394C131.292 231.03 131.442 231.704 131.704 232.341C132.379 234.027 133.839 235.525 136.199 236.873L148.372 243.915C151.031 245.45 154.14 246.387 157.735 246.686C158.672 246.761 159.608 246.799 160.582 246.799C165.376 246.799 169.459 245.825 172.83 243.877L175.901 242.117Z" fill="white" stroke="#009CF2" stroke-width="0.522963" stroke-miterlimit="10"/>
<path d="M233.957 229.682V244.739L224.855 239.458V224.401L233.957 229.682Z" fill="white" stroke="#009CF2" stroke-width="0.522963" stroke-miterlimit="10"/>
<path d="M289.876 194.287C289.876 196.384 288.603 198.145 286.019 199.605L282.161 201.815L272.984 207.134L233.956 229.682L224.817 224.4L263.883 201.853L276.43 194.624L276.917 194.324L276.318 193.987L248.826 178.106L230.623 167.619C224.742 164.211 217.813 161.701 209.835 160.016C201.858 158.368 193.655 157.544 185.19 157.619C176.725 157.693 168.523 158.592 160.507 160.353C152.492 162.113 145.526 164.697 139.608 168.106C133.69 171.514 129.195 175.559 126.199 180.166C126.049 180.391 125.899 180.653 125.749 180.878C123.015 185.26 121.592 189.792 121.48 194.399C121.405 197.133 121.817 199.83 122.678 202.489C123.352 204.549 124.326 206.609 125.6 208.632C128.484 213.239 132.866 217.247 138.746 220.655L175.901 242.079L172.83 243.84C169.459 245.787 165.377 246.761 160.582 246.761C159.609 246.761 158.672 246.724 157.736 246.649C154.178 246.349 151.031 245.413 148.372 243.877L136.199 236.835C133.877 235.487 132.379 233.989 131.705 232.303C131.442 231.667 131.293 230.993 131.255 230.356V230.318C131.18 229.307 131.368 228.258 131.817 227.21L125.15 222.977L124.214 222.378C117.734 217.584 113.165 212.49 110.505 207.096C109.719 205.486 109.044 203.875 108.558 202.302C107.771 199.793 107.396 197.283 107.396 194.774C107.396 193.575 107.471 192.339 107.659 191.141C108.445 185.897 110.805 180.803 114.7 175.934C118.595 171.065 123.877 166.683 130.506 162.862C137.248 158.967 144.851 155.896 153.316 153.648C161.781 151.401 170.545 150.09 179.684 149.678C188.786 149.266 197.962 149.828 207.214 151.364C216.465 152.862 225.192 155.484 233.432 159.154L241.822 163.461C244.556 162.937 247.403 162.862 250.287 163.237C253.171 163.611 255.718 164.398 257.853 165.634L271.861 173.724C274.108 174.998 275.531 176.496 276.093 178.144C276.692 179.792 276.543 181.402 275.606 183.013L286.094 189.081C288.64 190.466 289.876 192.227 289.876 194.287Z" fill="#3FA8F4" stroke="#009CF2" stroke-width="0.522963" stroke-miterlimit="10" stroke-linejoin="round"/>
<path d="M289.879 152.937C289.879 155.034 288.605 156.795 286.021 158.255L282.163 160.465L272.987 165.784L233.959 188.332L224.82 183.051L263.848 160.503L276.395 153.274L276.882 152.974L276.283 152.637L248.791 136.756L230.588 126.269C224.707 122.861 217.778 120.351 209.8 118.666C201.822 117.018 193.62 116.194 185.155 116.269C176.69 116.343 168.488 117.242 160.472 119.003C152.457 120.763 145.49 123.348 139.572 126.756C133.655 130.164 129.16 134.209 126.164 138.816C126.014 139.041 125.864 139.303 125.714 139.528C122.98 143.91 121.557 148.442 121.444 153.049C121.369 155.783 121.781 158.48 122.643 161.139C123.317 163.199 124.291 165.259 125.564 167.282C128.448 171.889 132.831 175.897 138.711 179.305L175.866 200.729L172.795 202.49C169.424 204.437 165.341 205.411 160.547 205.411C159.573 205.411 158.637 205.374 157.701 205.299C154.142 204.999 150.996 204.063 148.337 202.527L136.164 195.486C133.842 194.137 132.344 192.639 131.67 190.953C131.407 190.317 131.258 189.643 131.22 189.006V188.968C131.145 187.957 131.332 186.908 131.782 185.86L125.152 181.627L124.216 181.028C117.736 176.234 113.167 171.14 110.47 165.746C109.684 164.136 109.009 162.525 108.522 160.952C107.736 158.443 107.361 155.933 107.361 153.424C107.361 152.225 107.436 150.989 107.624 149.791C108.41 144.547 110.77 139.453 114.665 134.584C118.56 129.715 123.841 125.333 130.471 121.512C137.213 117.617 144.816 114.546 153.281 112.298C161.746 110.051 170.51 108.74 179.649 108.328C188.751 107.916 197.927 108.478 207.178 110.014C216.43 111.512 225.157 114.134 233.397 117.804L241.787 122.111C244.521 121.587 247.367 121.512 250.252 121.887C253.136 122.261 255.682 123.048 257.817 124.284L271.825 132.374C274.073 133.648 275.496 135.146 276.058 136.794C276.657 138.442 276.507 140.052 275.571 141.663L286.058 147.731C288.643 149.154 289.879 150.877 289.879 152.937Z" stroke="#009CF2" stroke-width="0.522963" stroke-miterlimit="10"/>
<path d="M107.471 263.316V144.322C107.471 140.352 105.898 136.532 103.089 133.723L94.2123 124.846C91.4032 122.037 89.8301 118.216 89.8301 114.246V69.6" stroke="#009CF2" stroke-width="0.522963" stroke-miterlimit="10"/>
<path d="M89.8303 69.5999C92.1265 69.5999 93.9878 67.7385 93.9878 65.4424C93.9878 63.1463 92.1265 61.2849 89.8303 61.2849C87.5342 61.2849 85.6729 63.1463 85.6729 65.4424C85.6729 67.7385 87.5342 69.5999 89.8303 69.5999Z" stroke="#009CF2" stroke-width="0.522963" stroke-miterlimit="10"/>
<defs>
<linearGradient id="paint0_linear_320_534" x1="16.1572" y1="246.831" x2="354.175" y2="246.831" gradientUnits="userSpaceOnUse">
<stop stop-color="white"/>
<stop offset="1" stop-color="#3FA8F4"/>
</linearGradient>
</defs>
</svg>
