<svg width="46" height="34" viewBox="0 0 46 34" fill="none" xmlns="http://www.w3.org/2000/svg">
<path d="M31.8216 10.4456C31.0565 10.4123 30.2581 10.2792 29.493 10.0464C27.996 9.61392 26.5989 8.78227 25.4013 7.61796C23.0061 5.22279 19.8458 3.92542 16.486 3.92542C9.13415 3.92542 3.21277 10.246 3.91136 17.7641C4.14423 20.3589 5.20874 22.7873 6.87205 24.75C9.30048 27.5776 12.7602 29.1744 16.4527 29.1744C21.1765 29.1744 25.3015 26.5464 27.4638 22.6875C27.7632 22.1553 27.4638 21.4899 26.8983 21.3569C26.865 21.3569 26.8317 21.3236 26.7985 21.3236C26.3993 21.2238 25.9668 21.3901 25.7672 21.7561C25.3015 22.621 24.7027 23.3861 24.0041 24.0847C21.9749 26.1139 19.1473 27.3115 16.0535 27.2117C13.4587 27.1119 10.9305 26.0474 9.06761 24.251C6.93858 22.1885 5.77427 19.3942 5.80753 16.4335C5.87406 10.5454 10.5979 5.88812 16.486 5.88812C19.3468 5.88812 22.0081 6.9859 24.0374 9.01513C25.235 10.2127 26.6321 11.1109 28.1291 11.6764C28.861 11.9426 29.6261 12.1754 30.3912 12.3085C31.0898 12.4083 31.7551 12.4748 32.4537 12.4748C35.0817 12.4415 37.7098 11.5434 39.8388 9.74699C40.238 9.41433 40.2712 8.78227 39.9053 8.38308L39.8388 8.31654C39.5061 7.98388 38.9739 7.95062 38.6079 8.25001C36.6785 9.78025 34.2168 10.5454 31.8216 10.4456Z" fill="#459ED7"/>
<path d="M30.8569 14.2711C30.1583 14.2046 29.493 14.0715 28.8277 13.9052C28.0625 13.7056 27.3307 13.4395 26.5988 13.1068C25.3015 12.508 24.0373 11.6764 22.9396 10.6451C22.8398 10.5786 22.7732 10.4788 22.6734 10.379C21.0101 8.71569 18.8146 7.8175 16.4859 7.8175C11.6623 7.8175 7.73694 11.7429 7.73694 16.5665C7.73694 18.8951 8.63512 21.0907 10.2984 22.754C11.1301 23.5857 12.0948 24.2177 13.1261 24.6502C14.1573 25.0826 15.3216 25.3155 16.4859 25.3155C18.8146 25.3155 21.0101 24.4173 22.6734 22.754C23.0726 22.3548 23.4386 21.9223 23.7379 21.4566C24.0706 20.9909 23.871 20.3256 23.372 20.0927L23.2722 19.9596C22.873 19.76 22.374 19.9264 22.1079 20.2923C21.875 20.6582 21.5756 20.9909 21.2763 21.2903C20.6442 21.9223 19.8791 22.4213 19.0807 22.754C18.3156 23.0867 17.4506 23.253 16.5857 23.253C14.8559 23.2863 13.1593 22.6542 11.8952 21.4899C10.4648 20.1925 9.69964 18.3961 9.69964 16.4667C9.69964 12.7409 12.7269 9.68041 16.4859 9.68041C18.2823 9.68041 20.0121 10.379 21.2763 11.6764C22.0414 12.4415 22.8398 13.0736 23.7047 13.6391C24.1039 13.9052 24.5363 14.1713 24.9688 14.4042C25.6674 14.7701 26.366 15.0695 27.0646 15.3356C27.7299 15.5685 28.3952 15.7681 29.0605 15.9012C29.6926 16.0342 30.3579 16.134 30.99 16.1673C31.6553 16.2338 32.2873 16.2338 32.9527 16.2006C36.4123 16.0675 39.8388 14.7701 42.5998 12.3084C42.999 11.9758 42.999 11.3437 42.6331 10.9778L42.5666 10.9113C42.2339 10.5786 41.6684 10.5453 41.3025 10.878C38.874 13.007 35.8468 14.1381 32.8196 14.2711C32.1875 14.3709 31.5222 14.3377 30.8569 14.2711Z" fill="#459ED7"/>
<path d="M45.4275 13.8054L45.361 13.7389C44.9951 13.373 44.4628 13.373 44.0969 13.7056C40.9033 16.5665 36.9114 18.0635 32.9195 18.1966C32.2542 18.2298 31.6221 18.1966 30.9568 18.1633C30.3247 18.13 29.6927 18.0302 29.0606 17.8972C29.0273 17.8972 28.9941 17.8972 28.9275 17.8639C28.8943 17.8639 28.861 17.8306 28.7945 17.8306C28.6614 17.7974 28.4951 17.7641 28.362 17.7308C28.1624 17.6976 27.9628 17.631 27.7632 17.5645C27.6634 17.5312 27.5636 17.498 27.4638 17.498C27.364 17.4647 27.231 17.4314 27.1312 17.3982C26.4991 17.1986 25.8671 16.9657 25.235 16.6996C24.9023 16.5665 24.5697 16.4002 24.2703 16.2339C23.9376 16.0675 23.5717 15.8679 23.239 15.6683C22.1412 15.003 21.0767 14.2046 20.1453 13.2732C20.0787 13.2066 20.0122 13.1734 19.9789 13.1068C19.114 12.2087 17.8832 11.6764 16.5193 11.6764C13.7914 11.6431 11.6292 13.8054 11.6292 16.5C11.6292 17.8306 12.1614 19.0615 13.0596 19.9264C13.4921 20.3589 14.0243 20.7248 14.5898 20.9577C15.1554 21.1905 15.8207 21.3568 16.486 21.3568C18.0495 21.3568 19.4467 20.625 20.3116 19.4607C20.6443 19.0282 20.5445 18.4294 20.112 18.13C20.0787 18.0968 20.0455 18.0968 20.0122 18.0635C19.613 17.7974 19.0808 17.8639 18.7814 18.2298C18.2491 18.9284 17.4175 19.3609 16.486 19.3609C14.8892 19.3609 13.5919 18.0635 13.5919 16.4667C13.5919 14.87 14.8892 13.5726 16.486 13.5726C17.2844 13.5726 18.0162 13.9052 18.5485 14.4375C18.5818 14.4708 18.615 14.504 18.615 14.5373C19.4467 15.3689 20.3781 16.1008 21.3096 16.7661C21.9084 17.1653 22.5072 17.5312 23.106 17.8639C23.4054 18.0302 23.7048 18.1633 24.0041 18.3296C24.3035 18.4627 24.6029 18.5958 24.9023 18.7288C25.5011 18.9617 26.0999 19.1945 26.732 19.3609C27.364 19.5605 27.9961 19.6935 28.6281 19.8266C29.2602 19.9597 29.8923 20.0262 30.5576 20.0927C31.2229 20.1593 31.8882 20.1925 32.5535 20.1593C37.1443 20.0927 41.735 18.4294 45.361 15.1361C45.7935 14.7702 45.7935 14.1714 45.4275 13.8054Z" fill="#459ED7"/>
<path d="M30.7904 21.9224C30.7571 21.9224 30.6906 21.9224 30.6574 21.9224C30.2582 21.8891 29.9255 22.122 29.7592 22.4546C27.4638 27.5111 22.3741 31.0373 16.486 31.0373C8.23598 31.0373 1.54949 24.1179 1.94868 15.8014C2.31461 8.4496 8.20271 2.46169 15.5213 1.99597C19.9124 1.69657 23.9376 3.39315 26.7652 6.22077L26.7985 6.1875C27.9295 7.31855 29.3267 8.0504 30.8237 8.31653C32.9527 8.71573 35.2148 8.25 37.0444 6.88609C37.5102 6.55343 37.5434 5.88811 37.1442 5.48891L37.111 5.45565C36.7783 5.12298 36.2461 5.08972 35.8801 5.38911C33.6513 7.08569 30.4578 6.98589 28.362 5.05645C28.2955 4.98992 28.2289 4.92339 28.1624 4.85686C25.1684 1.8629 21.0434 0 16.486 0C11.7955 0 7.43759 1.92944 4.24404 5.42238C1.68255 8.25 0.185577 11.9093 0.0192459 15.7016C-0.213617 20.5585 1.68255 25.0161 4.84283 28.1764C6.33981 29.6734 8.10292 30.871 10.0989 31.7026C12.5273 32.7339 15.2884 33.1996 18.1493 32.9335C21.5092 32.6008 24.736 31.2369 27.2975 29.0081C29.1936 27.378 30.6241 25.4153 31.6221 23.2198C31.8217 22.6542 31.4225 21.9889 30.7904 21.9224Z" fill="#459ED7"/>
</svg>
