<svg width="176" height="49" viewBox="0 0 176 49" fill="none" xmlns="http://www.w3.org/2000/svg">
<g clip-path="url(#clip0_57_184)">
<path d="M88.0726 22.0667V12.4155H90.255V25.995H88.606L80.8948 16.3924V25.995H78.7124V12.4155H80.3613L88.0726 22.0667Z" fill="#150E3B"/>
<path d="M103.058 23.1336H95.6865L94.4256 25.995H92.0977L98.2084 12.4155H100.585L106.696 25.995H104.368L103.058 23.1336ZM99.4209 14.6949L96.511 21.1937H102.282L99.4209 14.6949Z" fill="#150E3B"/>
<path d="M119.402 12.4155V20.3692C119.402 24.3461 116.783 26.383 113.485 26.2375C110.43 26.189 107.86 24.2491 107.86 20.3692V12.4155H109.994V20.3692C109.994 22.8426 111.448 24.1521 113.437 24.2491C115.619 24.3461 117.22 22.9396 117.22 20.3692V12.4155H119.402Z" fill="#150E3B"/>
<path d="M125.707 14.3555H121.245V12.4155C125.125 12.4155 128.471 12.4155 132.351 12.4155V14.3555H127.889V25.995H125.707V14.3555Z" fill="#150E3B"/>
<path d="M134.388 25.995V12.4155H136.522V25.995H134.388Z" fill="#150E3B"/>
<path d="M142.148 12.4155V24.0066H149.326V26.0435H139.966V12.464H142.148V12.4155Z" fill="#150E3B"/>
<path d="M162.372 12.4155V20.3692C162.372 24.3461 159.753 26.383 156.455 26.2375C153.448 26.189 150.878 24.2491 150.878 20.3692V12.4155H153.012V20.3692C153.012 22.8426 154.467 24.1521 156.455 24.2491C158.637 24.3461 160.238 22.9396 160.238 20.3692V12.4155H162.372Z" fill="#150E3B"/>
<path d="M173.769 15.4224C173.138 14.5009 171.829 13.919 170.422 13.919C168.58 13.919 167.27 14.6949 167.27 15.9559C167.27 17.2653 168.774 17.6533 170.568 17.8958C173.381 18.2838 176.048 19.0598 176.048 22.1152C176.048 25.1705 173.235 26.286 170.422 26.286C167.804 26.286 165.815 25.51 164.554 23.1821L166.203 22.1152C167.173 23.7641 168.871 24.3461 170.422 24.3461C172.071 24.3461 173.866 23.8126 173.866 22.1152C173.866 20.6602 172.314 20.1267 170.374 19.8842C167.658 19.4963 165.088 18.8173 165.088 15.9074C165.088 13.0945 167.901 12.0275 170.325 12.0275C172.265 12.0275 174.254 12.5125 175.418 14.3069L173.769 15.4224Z" fill="#150E3B"/>
<path d="M80.4098 31.4753H78.7124V30.6993C80.2158 30.6993 81.4768 30.6993 82.9802 30.6993V31.4753H81.2828V35.9371H80.4583V31.4753H80.4098Z" fill="#150E3B"/>
<path d="M88.8 35.9857H84.9202C84.9202 34.2398 84.9202 32.4939 84.9202 30.7479H88.7515V31.5724H85.7446V32.9788H88.606V33.7548H85.7446V35.1613H88.7515V35.9857H88.8Z" fill="#150E3B"/>
<path d="M95.3957 35.3066C94.8623 35.8401 94.1833 36.0826 93.4558 36.0826C91.5644 36.0826 90.6914 34.7732 90.6914 33.4152C90.6914 32.0573 91.5644 30.6508 93.4558 30.6508C94.1348 30.6508 94.8138 30.8933 95.3472 31.4268L94.7653 31.9603C94.3773 31.5723 93.8923 31.4268 93.4073 31.4268C92.0979 31.4268 91.4674 32.3968 91.4674 33.3667C91.4674 34.3367 92.0494 35.2581 93.4073 35.2581C93.8923 35.2581 94.4258 35.0642 94.8138 34.6762L95.3957 35.3066Z" fill="#150E3B"/>
<path d="M101.07 35.9857V33.8033H98.3054V35.9857H97.481V30.7479H98.3054V33.0273H101.07V30.7479H101.894V35.9857H101.07Z" fill="#150E3B"/>
<path d="M108.005 34.4823V30.7479H108.83V35.9857H108.199L105.241 32.2999V35.9857H104.416V30.7479H105.047L108.005 34.4823Z" fill="#150E3B"/>
<path d="M116.395 33.3668C116.395 34.7732 115.522 36.0827 113.728 36.0827C111.934 36.0827 111.061 34.7732 111.061 33.3668C111.061 31.7663 112.176 30.6024 113.728 30.6024C115.522 30.6509 116.395 31.9603 116.395 33.3668ZM113.728 35.3067C115.037 35.3067 115.571 34.3852 115.571 33.3668C115.571 32.3968 115.037 31.3783 113.728 31.3783C112.515 31.3783 111.885 32.2028 111.885 33.3668C111.885 34.3367 112.418 35.3067 113.728 35.3067Z" fill="#150E3B"/>
<path d="M119.402 30.7479V35.2098H122.167V35.9857H118.578V30.7479H119.402Z" fill="#150E3B"/>
<path d="M129.054 33.3668C129.054 34.7732 128.181 36.0827 126.386 36.0827C124.592 36.0827 123.719 34.7732 123.719 33.3668C123.719 31.7663 124.834 30.6024 126.386 30.6024C128.181 30.6509 129.054 31.9603 129.054 33.3668ZM126.386 35.3067C127.696 35.3067 128.229 34.3852 128.229 33.3668C128.229 32.3968 127.696 31.3783 126.386 31.3783C125.174 31.3783 124.543 32.2028 124.543 33.3668C124.543 34.3367 125.077 35.3067 126.386 35.3067Z" fill="#150E3B"/>
<path d="M135.067 31.9603C134.679 31.5723 134.146 31.3783 133.661 31.3783C132.448 31.3783 131.721 32.2998 131.721 33.4153C131.721 34.3852 132.303 35.3067 133.661 35.3067C134.097 35.3067 134.534 35.2097 134.922 34.8217V33.7547H133.467V33.0273H135.698V35.1612C135.164 35.7432 134.534 36.0827 133.661 36.0827C131.721 36.0827 130.896 34.8217 130.896 33.4153C130.896 31.9118 131.866 30.6024 133.661 30.6024C134.34 30.6024 135.067 30.8448 135.601 31.3783L135.067 31.9603Z" fill="#150E3B"/>
<path d="M137.977 35.9857V30.7479H138.802V35.9857H137.977Z" fill="#150E3B"/>
<path d="M145.155 35.9857H141.275C141.275 34.2398 141.275 32.4939 141.275 30.7479H145.106V31.5724H142.099V32.9788H144.961V33.7548H142.099V35.1613H145.106V35.9857H145.155Z" fill="#150E3B"/>
<path d="M150.587 31.9118C150.344 31.5723 149.859 31.3298 149.277 31.3298C148.598 31.3298 148.065 31.6208 148.065 32.1058C148.065 32.5908 148.647 32.7363 149.326 32.8332C150.393 32.9787 151.411 33.2697 151.411 34.4337C151.411 35.5976 150.344 36.0341 149.229 36.0341C148.21 36.0341 147.483 35.7431 146.998 34.8702L147.628 34.4337C148.016 35.0642 148.647 35.3067 149.277 35.3067C149.908 35.3067 150.587 35.1127 150.587 34.4337C150.587 33.8517 150.005 33.6577 149.229 33.5607C148.21 33.4152 147.192 33.1727 147.192 32.0573C147.192 30.9903 148.259 30.5538 149.229 30.5538C150.005 30.5538 150.732 30.7478 151.169 31.4268L150.587 31.9118Z" fill="#150E3B"/>
<path d="M46.4126 15.2284C45.2972 15.1799 44.1332 14.9859 43.0177 14.6464C40.8353 14.0159 38.7984 12.8035 37.0525 11.106C33.5606 7.61415 28.9533 5.72272 24.0549 5.72272C13.3368 5.72272 4.70416 14.9374 5.72262 25.898C6.06211 29.6808 7.61405 33.2212 10.039 36.0826C13.5793 40.2049 18.6231 42.5329 24.0064 42.5329C30.8932 42.5329 36.907 38.7015 40.0594 33.0757C40.4958 32.2997 40.0594 31.3298 39.2349 31.1358C39.1864 31.1358 39.1379 31.0873 39.0894 31.0873C38.5074 30.9418 37.8769 31.1843 37.5859 31.7178C36.907 32.9787 36.034 34.0942 35.0155 35.1126C32.0571 38.071 27.9348 39.817 23.4245 39.6715C19.6416 39.526 15.9557 37.974 13.2398 35.3551C10.136 32.3482 8.43852 28.2744 8.48702 23.958C8.58402 15.3739 15.4708 8.58411 24.0549 8.58411C28.2258 8.58411 32.1057 10.1846 35.064 13.1429C36.81 14.8889 38.8469 16.1983 41.0293 17.0228C42.0963 17.4108 43.2117 17.7503 44.3272 17.9443C45.3457 18.0898 46.3156 18.1868 47.3341 18.1868C51.1654 18.1383 54.9968 16.8288 58.1007 14.2099C58.6827 13.7249 58.7312 12.8035 58.1977 12.2215L58.1007 12.1245C57.6157 11.6395 56.8397 11.591 56.3063 12.0275C53.4934 14.2584 49.9045 15.3739 46.4126 15.2284Z" fill="#459ED7"/>
<path d="M45.0061 20.8057C43.9876 20.7088 43.0176 20.5148 42.0477 20.2723C40.9322 19.9813 39.8653 19.5933 38.7983 19.1083C36.9069 18.2353 35.0639 17.0229 33.4635 15.5194C33.318 15.4224 33.221 15.277 33.0755 15.1315C30.6506 12.7065 27.4497 11.3971 24.0548 11.3971C17.0226 11.3971 11.2998 17.1199 11.2998 24.1521C11.2998 27.547 12.6093 30.7479 15.0342 33.1728C16.2466 34.3852 17.6531 35.3067 19.1565 35.9372C20.66 36.5677 22.3574 36.9072 24.0548 36.9072C27.4497 36.9072 30.6506 35.5977 33.0755 33.1728C33.6575 32.5908 34.191 31.9603 34.6274 31.2814C35.1124 30.6024 34.8214 29.6324 34.094 29.2929L33.9485 29.0989C33.3665 28.808 32.639 29.0504 32.251 29.5839C31.9115 30.1174 31.4751 30.6024 31.0386 31.0389C30.1171 31.9603 29.0017 32.6878 27.8377 33.1728C26.7222 33.6578 25.4613 33.9003 24.2003 33.9003C21.6784 33.9488 19.205 33.0273 17.3621 31.3299C15.2767 29.4384 14.1612 26.8195 14.1612 24.0066C14.1612 18.5748 18.5745 14.113 24.0548 14.113C26.6737 14.113 29.1956 15.1315 31.0386 17.0229C32.154 18.1383 33.318 19.0598 34.5789 19.8843C35.1609 20.2723 35.7914 20.6603 36.4219 20.9997C37.4403 21.5332 38.4588 21.9697 39.4773 22.3577C40.4472 22.6972 41.4172 22.9882 42.3872 23.1822C43.3086 23.3762 44.2786 23.5216 45.2001 23.5701C46.17 23.6671 47.0915 23.6671 48.0615 23.6186C53.1053 23.4247 58.1006 21.5332 62.1259 17.9444C62.7079 17.4594 62.7079 16.5379 62.1744 16.0044L62.0774 15.9074C61.5924 15.4224 60.768 15.3739 60.2345 15.8589C56.6941 18.9628 52.2808 20.6118 47.8675 20.8057C46.946 20.9512 45.976 20.9027 45.0061 20.8057Z" fill="#459ED7"/>
<path d="M66.2483 20.1268L66.1513 20.0298C65.6178 19.4963 64.8419 19.4963 64.3084 19.9813C59.6525 24.1521 53.8328 26.3345 48.013 26.5285C47.043 26.577 46.1215 26.5285 45.1516 26.48C44.2301 26.4315 43.3086 26.286 42.3872 26.0921C42.3387 26.0921 42.2902 26.0921 42.1932 26.0436C42.1447 26.0436 42.0962 25.9951 41.9992 25.9951C41.8052 25.9466 41.5627 25.8981 41.3687 25.8496C41.0777 25.8011 40.7867 25.7041 40.4958 25.6071C40.3503 25.5586 40.2048 25.5101 40.0593 25.5101C39.9138 25.4616 39.7198 25.4131 39.5743 25.3646C38.6528 25.0736 37.7314 24.7341 36.8099 24.3461C36.3249 24.1521 35.8399 23.9096 35.4034 23.6671C34.9185 23.4247 34.385 23.1337 33.9 22.8427C32.2996 21.8727 30.7476 20.7088 29.3897 19.3508C29.2927 19.2538 29.1957 19.2053 29.1472 19.1083C27.8862 17.7989 26.0918 17.0229 24.1034 17.0229C20.1265 16.9744 16.9741 20.1268 16.9741 24.0551C16.9741 25.9951 17.7501 27.7895 19.0595 29.0504C19.69 29.6809 20.466 30.2144 21.2905 30.5539C22.1149 30.8934 23.0849 31.1359 24.0549 31.1359C26.3343 31.1359 28.3712 30.0689 29.6322 28.3715C30.1171 27.741 29.9716 26.868 29.3412 26.4315C29.2927 26.383 29.2442 26.383 29.1957 26.3345C28.6137 25.9466 27.8377 26.0436 27.4012 26.577C26.6253 27.5955 25.4128 28.226 24.0549 28.226C21.7269 28.226 19.8355 26.3345 19.8355 24.0066C19.8355 21.6787 21.7269 19.7873 24.0549 19.7873C25.2188 19.7873 26.2858 20.2723 27.0617 21.0482C27.1102 21.0967 27.1587 21.1452 27.1587 21.1937C28.3712 22.4062 29.7291 23.4732 31.0871 24.4431C31.9601 25.0251 32.833 25.5586 33.706 26.0436C34.1425 26.286 34.579 26.48 35.0155 26.7225C35.4519 26.9165 35.8884 27.1105 36.3249 27.3045C37.1979 27.644 38.0708 27.9835 38.9923 28.226C39.9138 28.517 40.8352 28.711 41.7567 28.905C42.6782 29.0989 43.5996 29.1959 44.5696 29.2929C45.5396 29.3899 46.5095 29.4384 47.4795 29.3899C54.1722 29.2929 60.865 26.868 66.1513 22.0667C66.7818 21.5332 66.7818 20.6603 66.2483 20.1268Z" fill="#459ED7"/>
<path d="M44.9092 31.9603C44.8607 31.9603 44.7637 31.9603 44.7152 31.9603C44.1332 31.9118 43.6482 32.2513 43.4057 32.7363C40.0593 40.108 32.6391 45.2488 24.0549 45.2488C12.0274 45.2488 2.27924 35.1612 2.86122 23.0366C3.3947 12.3185 11.9789 3.58887 22.6485 2.90989C29.0503 2.47341 34.9185 4.94682 39.0409 9.06917L39.0894 9.02067C40.7383 10.6696 42.7752 11.7366 44.9577 12.1246C48.0616 12.7065 51.3594 12.0276 54.0268 10.0391C54.7058 9.55415 54.7543 8.58418 54.1723 8.0022L54.1238 7.95371C53.6388 7.46872 52.8629 7.42023 52.3294 7.85671C49.08 10.3301 44.4242 10.1846 41.3688 7.37173C41.2718 7.27473 41.1748 7.17773 41.0778 7.08074C36.713 2.7159 30.6992 0 24.0549 0C17.2167 0 10.8634 2.8129 6.20759 7.90521C2.47323 12.0276 0.290813 17.3624 0.048322 22.8912C-0.291165 29.9719 2.47323 36.4706 7.08056 41.078C9.26298 43.2604 11.8334 45.0063 14.7433 46.2188C18.2836 47.7222 22.309 48.4012 26.4798 48.0132C31.3782 47.5282 36.0825 45.5398 39.8169 42.2904C42.5813 39.914 44.6667 37.0526 46.1216 33.8517C46.4126 33.0273 45.8306 32.0573 44.9092 31.9603Z" fill="#459ED7"/>
</g>
<defs>
<clipPath id="clip0_57_184">
<rect width="176" height="48.1102" fill="white"/>
</clipPath>
</defs>
</svg>
